<?xml version="1.0" encoding="utf-8"?>
<!-- Generator: Adobe Illustrator 26.3.1, SVG Export Plug-In . SVG Version: 6.00 Build 0)  -->
<svg version="1.1" xmlns="http://www.w3.org/2000/svg" xmlns:xlink="http://www.w3.org/1999/xlink" x="0px" y="0px"
	 viewBox="0 0 1080 1080" style="enable-background:new 0 0 1080 1080;" xml:space="preserve">
<style type="text/css">
	.st0{display:none;}
	.st1{display:inline;fill:url(#SVGID_1_);}
	.st2{display:inline;fill:#FFFFFF;}
	.st3{fill:#FFFFFF;}
	.st4{fill:#160723;}
	.st5{fill:url(#SVGID_00000163041652869105187690000003763891162482104733_);}
	.st6{opacity:0.43;fill:#59050B;}
	.st7{opacity:0.49;fill:#821611;}
	.st8{opacity:0.6;fill:#F7931E;}
	.st9{opacity:0.6;fill:#FDCD4D;}
	.st10{opacity:0.35;}
	.st11{fill:#26092D;}
	.st12{fill:url(#SVGID_00000092437216381912229040000012634719733771416960_);}
	.st13{opacity:0.31;}
	.st14{fill:url(#SVGID_00000139252988118187587380000010865894950466395543_);}
	.st15{fill:#FFFFFF;stroke:#FFFFFF;stroke-miterlimit:10;}
	.st16{fill:#C2C2C2;}
	.st17{fill:#A0A0A0;}
	.st18{fill:#E6E6E6;}
	.st19{fill:none;stroke:#FFFFFF;stroke-linecap:round;stroke-linejoin:round;stroke-miterlimit:10;}
	.st20{fill:#5D0084;}
	.st21{fill:url(#SVGID_00000152979616683957561310000010124749851510418364_);}
	.st22{opacity:0.91;}
	.st23{fill:#140021;}
	.st24{fill:#B100FF;}
	.st25{opacity:0.36;fill:#140021;}
	.st26{fill:#80D5FF;stroke:#26092D;stroke-width:3;stroke-miterlimit:10;}
	.st27{fill:url(#SVGID_00000050651331612908304540000011790067549051438247_);}
	.st28{opacity:0.91;fill:#140021;}
	.st29{fill:#B3E6FF;}
	.st30{opacity:0.3;}
	.st31{opacity:0.65;fill:#E460FC;}
	.st32{opacity:0.65;}
	.st33{fill:#E460FC;}
</style>
<g id="Layer_10" class="st0">
	<linearGradient id="SVGID_1_" gradientUnits="userSpaceOnUse" x1="188.0502" y1="214.6292" x2="957.1218" y2="901.9037">
		<stop  offset="0" style="stop-color:#2E033B"/>
		<stop  offset="0.0816" style="stop-color:#3C0E4B"/>
		<stop  offset="0.1784" style="stop-color:#461657"/>
		<stop  offset="0.2765" style="stop-color:#49195B"/>
		<stop  offset="0.2981" style="stop-color:#4C185C"/>
		<stop  offset="0.4213" style="stop-color:#5A1361"/>
		<stop  offset="0.5279" style="stop-color:#5F1163"/>
		<stop  offset="0.5845" style="stop-color:#500D57"/>
		<stop  offset="0.6799" style="stop-color:#3D0747"/>
		<stop  offset="0.7781" style="stop-color:#32043E"/>
		<stop  offset="0.8827" style="stop-color:#2E033B"/>
	</linearGradient>
	<rect x="1.04" y="226.12" class="st1" width="1078.77" height="606.81"/>
	<polygon class="st2" points="373.32,281.57 375.23,284.95 379.5,285.49 376.41,288.12 377.14,291.83 373.32,290.08 369.49,291.83 
		370.22,288.12 367.13,285.49 371.4,284.95 	"/>
	<polygon class="st2" points="421.99,415.67 423.52,418.78 426.96,419.28 424.47,421.7 425.06,425.12 421.99,423.51 418.92,425.12 
		419.5,421.7 417.02,419.28 420.45,418.78 	"/>
	<polygon class="st2" points="782.47,455 785.01,460.3 790.71,461.15 786.59,465.27 787.56,471.08 782.47,468.34 777.37,471.08 
		778.34,465.27 774.22,461.15 779.92,460.3 	"/>
	<polygon class="st2" points="425.94,744.01 427.16,746.17 429.88,746.52 427.91,748.19 428.38,750.56 425.94,749.45 423.5,750.56 
		423.96,748.19 421.99,746.52 424.72,746.17 	"/>
	<polygon class="st2" points="284.87,293.94 286.09,296.09 288.82,296.44 286.85,298.12 287.31,300.49 284.87,299.37 282.43,300.49 
		282.9,298.12 280.93,296.44 283.65,296.09 	"/>
	<polygon class="st2" points="268.3,641.59 269.52,643.74 272.25,644.09 270.28,645.77 270.74,648.14 268.3,647.02 265.86,648.14 
		266.33,645.77 264.36,644.09 267.08,643.74 	"/>
	<polygon class="st2" points="711.88,450.99 713.56,453.95 717.31,454.42 714.6,456.73 715.24,459.99 711.88,458.45 708.53,459.99 
		709.17,456.73 706.46,454.42 710.21,453.95 	"/>
	<polygon class="st2" points="468.5,339.45 470.43,343.35 474.74,343.98 471.62,347.01 472.36,351.3 468.5,349.28 464.65,351.3 
		465.39,347.01 462.27,343.98 466.58,343.35 	"/>
	<polygon class="st2" points="395.83,509.65 398.46,514.29 404.33,515.03 400.08,518.65 401.09,523.75 395.83,521.34 390.58,523.75 
		391.58,518.65 387.33,515.03 393.2,514.29 	"/>
	<polygon class="st2" points="833.83,535.16 835.05,537.31 837.78,537.66 835.81,539.34 836.27,541.71 833.83,540.59 831.39,541.71 
		831.86,539.34 829.88,537.66 832.61,537.31 	"/>
	<path class="st2" d="M750.45,308.99l2.6-2.19l-3.22-1.1l-1.16-3.59l-1.53,2.69c-1.95-0.79-4.3-1.64-6.59-2.21
		c-5.39-1.35-10.5,0.46-10.5,0.46s10.87,1.61,15.6,5.42l-0.82,3.3l3.08-1.23l2.77,2.24L750.45,308.99z"/>
	<polygon class="st2" points="141.51,651.48 144.06,656.77 149.76,657.62 145.63,661.74 146.61,667.56 141.51,664.81 136.41,667.56 
		137.38,661.74 133.26,657.62 138.96,656.77 	"/>
	<polygon class="st2" points="300.17,545.68 301.39,547.83 304.12,548.18 302.15,549.86 302.61,552.23 300.17,551.11 297.73,552.23 
		298.2,549.86 296.22,548.18 298.95,547.83 	"/>
	<polygon class="st2" points="583.43,496.84 584.65,499 587.38,499.34 585.41,501.02 585.87,503.39 583.43,502.27 580.99,503.39 
		581.46,501.02 579.49,499.34 582.21,499 	"/>
	<polygon class="st2" points="1017.32,783.49 1019.23,786.86 1023.51,787.41 1020.41,790.04 1021.14,793.75 1017.32,792 
		1013.5,793.75 1014.23,790.04 1011.13,787.41 1015.41,786.86 	"/>
	<polygon class="st2" points="1012.35,707.6 1013.89,710.71 1017.32,711.21 1014.83,713.63 1015.42,717.05 1012.35,715.44 
		1009.28,717.05 1009.86,713.63 1007.38,711.21 1010.81,710.71 	"/>
	<polygon class="st2" points="276.2,776.94 277.42,779.09 280.15,779.44 278.17,781.12 278.64,783.49 276.2,782.37 273.76,783.49 
		274.23,781.12 272.25,779.44 274.98,779.09 	"/>
	<polygon class="st2" points="890.33,732.16 892.26,736.06 896.57,736.69 893.45,739.73 894.19,744.01 890.33,741.99 886.48,744.01 
		887.22,739.73 884.1,736.69 888.41,736.06 	"/>
	<path class="st2" d="M254.35,417.46l0.23-7.03l-6.15,3.42l-7.12-3.2l2,6.07c-3.9,1.89-8.46,4.32-12.52,7.05
		c-9.54,6.41-13.84,16.75-13.84,16.75s17.52-14.44,29.92-16.44l3.92,5.83l2.38-6.43l7.26-1.14L254.35,417.46z"/>
	<polygon class="st2" points="1023.51,527.33 1024.73,529.49 1027.45,529.83 1025.48,531.51 1025.95,533.88 1023.51,532.76 
		1021.07,533.88 1021.53,531.51 1019.56,529.83 1022.29,529.49 	"/>
	<polygon class="st2" points="992.29,417.12 993.51,419.28 996.23,419.62 994.26,421.3 994.73,423.67 992.29,422.55 989.85,423.67 
		990.31,421.3 988.34,419.62 991.07,419.28 	"/>
	<polygon class="st2" points="944.12,280.93 946.05,284.83 950.35,285.46 947.24,288.5 947.97,292.79 944.12,290.76 940.27,292.79 
		941,288.5 937.89,285.46 942.19,284.83 	"/>
	<polygon class="st2" points="610.28,786.7 612.9,791.34 618.78,792.08 614.53,795.7 615.53,800.8 610.28,798.39 605.02,800.8 
		606.03,795.7 601.78,792.08 607.65,791.34 	"/>
	<polygon class="st2" points="921.35,451.73 922.57,453.88 925.3,454.23 923.33,455.91 923.79,458.28 921.35,457.16 918.91,458.28 
		919.38,455.91 917.41,454.23 920.13,453.88 	"/>
	<polygon class="st2" points="66.43,365.51 68.98,370.8 74.68,371.65 70.56,375.77 71.53,381.59 66.43,378.84 61.34,381.59 
		62.31,375.77 58.18,371.65 63.88,370.8 	"/>
	<polygon class="st2" points="74.68,471.49 75.9,473.65 78.63,473.99 76.66,475.67 77.12,478.04 74.68,476.92 72.24,478.04 
		72.71,475.67 70.73,473.99 73.46,473.65 	"/>
	<polygon class="st2" points="316.55,460.39 317.77,462.55 320.5,462.9 318.52,464.57 318.99,466.94 316.55,465.82 314.11,466.94 
		314.57,464.57 312.6,462.9 315.33,462.55 	"/>
	<polygon class="st2" points="179.38,489.79 182,494.43 187.88,495.18 183.63,498.79 184.63,503.89 179.38,501.48 174.12,503.89 
		175.13,498.79 170.88,495.18 176.75,494.43 	"/>
	<polygon class="st2" points="162.2,388.06 163.42,390.22 166.15,390.57 164.18,392.24 164.64,394.61 162.2,393.49 159.76,394.61 
		160.23,392.24 158.26,390.57 160.98,390.22 	"/>
	<polygon class="st2" points="82.93,716.27 85.48,721.56 91.18,722.41 87.05,726.53 88.03,732.35 82.93,729.6 77.83,732.35 
		78.81,726.53 74.68,722.41 80.38,721.56 	"/>
	<polygon class="st2" points="183.33,724.61 184.55,726.77 187.27,727.11 185.3,728.79 185.77,731.16 183.33,730.04 180.89,731.16 
		181.35,728.79 179.38,727.11 182.11,726.77 	"/>
	<polygon class="st2" points="363.85,706.02 365.07,708.17 367.8,708.52 365.82,710.2 366.29,712.57 363.85,711.45 361.41,712.57 
		361.88,710.2 359.9,708.52 362.63,708.17 	"/>
	<polygon class="st2" points="337.51,622.64 340.14,627.28 346.02,628.02 341.77,631.63 342.77,636.74 337.51,634.33 332.26,636.74 
		333.26,631.63 329.01,628.02 334.89,627.28 	"/>
	<polygon class="st2" points="91.25,603.51 92.47,605.67 95.2,606.02 93.23,607.69 93.69,610.06 91.25,608.94 88.81,610.06 
		89.28,607.69 87.3,606.02 90.03,605.67 	"/>
	<polygon class="st2" points="159.63,259.47 161.54,262.85 165.82,263.39 162.73,266.02 163.46,269.74 159.63,267.98 155.81,269.74 
		156.54,266.02 153.45,263.39 157.72,262.85 	"/>
	<polygon class="st2" points="191.41,330.85 192.95,333.96 196.38,334.46 193.9,336.88 194.48,340.3 191.41,338.69 188.34,340.3 
		188.93,336.88 186.44,334.46 189.88,333.96 	"/>
	<polygon class="st2" points="141.08,290.66 142.3,292.82 145.03,293.16 143.05,294.84 143.52,297.21 141.08,296.09 138.64,297.21 
		139.1,294.84 137.13,293.16 139.86,292.82 	"/>
	<polygon class="st2" points="814.03,350.62 816.66,355.26 822.53,356.01 818.28,359.62 819.28,364.72 814.03,362.31 808.78,364.72 
		809.78,359.62 805.53,356.01 811.4,355.26 	"/>
	<polygon class="st2" points="711.88,370.27 713.1,372.43 715.83,372.78 713.86,374.45 714.32,376.82 711.88,375.7 709.44,376.82 
		709.91,374.45 707.94,372.78 710.66,372.43 	"/>
	<polygon class="st2" points="774.22,719.81 775.89,722.77 779.64,723.25 776.93,725.55 777.57,728.81 774.22,727.27 770.86,728.81 
		771.5,725.55 768.79,723.25 772.54,722.77 	"/>
	<polygon class="st2" points="345.15,364.72 348.81,372.34 357.02,373.56 351.08,379.5 352.48,387.87 345.15,383.92 337.81,387.87 
		339.21,379.5 333.27,373.56 341.48,372.34 	"/>
	<polygon class="st2" points="626.64,319.82 629.19,325.11 634.89,325.96 630.77,330.08 631.74,335.9 626.64,333.15 621.54,335.9 
		622.52,330.08 618.39,325.96 624.09,325.11 	"/>
	<polygon class="st2" points="603.22,252.09 604.44,254.25 607.17,254.59 605.2,256.27 605.66,258.64 603.22,257.52 600.78,258.64 
		601.25,256.27 599.28,254.59 602,254.25 	"/>
	<polygon class="st2" points="782.47,603.32 785.01,608.61 790.71,609.46 786.59,613.58 787.56,619.4 782.47,616.65 777.37,619.4 
		778.34,613.58 774.22,609.46 779.92,608.61 	"/>
	<polygon class="st2" points="822.53,656.24 823.75,658.4 826.48,658.74 824.5,660.42 824.97,662.79 822.53,661.67 820.09,662.79 
		820.55,660.42 818.58,658.74 821.31,658.4 	"/>
	<polygon class="st2" points="933.8,543.82 935.71,547.2 939.99,547.74 936.9,550.37 937.63,554.08 933.8,552.33 929.98,554.08 
		930.71,550.37 927.62,547.74 931.89,547.2 	"/>
	<polygon class="st2" points="884.1,581.07 885.64,584.18 889.07,584.68 886.59,587.1 887.17,590.52 884.1,588.91 881.03,590.52 
		881.62,587.1 879.13,584.68 882.56,584.18 	"/>
	<polygon class="st2" points="550.11,744.01 551.33,746.17 554.06,746.52 552.08,748.19 552.55,750.56 550.11,749.45 547.67,750.56 
		548.13,748.19 546.16,746.52 548.89,746.17 	"/>
</g>
<g id="Layer_8">
	<path d="M831.69,777.92c0.31-1.13,0.48-2.31,0.48-3.53c0-7.44-6.03-13.47-13.47-13.47c-1.89,0-3.69,0.39-5.32,1.09
		c-6.45-9.48-17.33-15.71-29.66-15.71c-16.42,0-30.25,11.04-34.49,26.1c-3.57-2.27-7.8-3.59-12.34-3.59c-1.85,0-3.65,0.22-5.37,0.64
		c-1.39-0.54-2.83-0.98-4.31-1.3c0.45-1.68,0.7-3.44,0.7-5.26c0-11.08-8.98-20.05-20.05-20.05c-2.81,0-5.49,0.58-7.92,1.63
		c-9.6-14.12-25.79-23.39-44.15-23.39c-17.38,0-32.81,8.31-42.56,21.17c-1.29-0.26-2.62-0.4-3.99-0.4c-2.81,0-5.49,0.58-7.92,1.63
		c-9.6-14.12-25.79-23.39-44.15-23.39c-16.89,0-31.93,7.85-41.71,20.09c-1.59-0.41-3.26-0.63-4.98-0.63c-2.81,0-5.49,0.58-7.92,1.63
		c-9.6-14.12-25.79-23.39-44.15-23.39c-24.44,0-45.02,16.43-51.35,38.85c-5.31-3.38-11.61-5.35-18.37-5.35
		c-9.67,0-18.39,4.01-24.62,10.44c-1.48,0.12-2.9,0.48-4.21,1.04c-6.45-9.48-17.33-15.71-29.66-15.71
		c-16.42,0-30.25,11.04-34.49,26.1c-3.57-2.27-7.8-3.59-12.34-3.59c-12.72,0-23.03,10.31-23.03,23.03s10.31,23.03,23.03,23.03
		c1.09,0,2.16-0.08,3.22-0.23c1.39,5.92,6.7,10.33,13.04,10.33c2.59,0,5.01-0.75,7.06-2.02c1.39,3.43,4.74,5.85,8.67,5.85
		c2.93,0,5.54-1.35,7.26-3.45c3.21,4.87,8.73,8.09,15.01,8.09c8.56,0,15.72-5.99,17.53-14.01c0.15,0.01,0.29,0.02,0.44,0.02
		c4.49,0,8.31-2.85,9.77-6.83c2,1.09,4.23,1.81,6.59,2.11c4.95,2.78,10.67,4.38,16.75,4.38c1.62,0,3.21-0.12,4.77-0.34
		c2.07,8.81,9.98,15.37,19.43,15.37c3.86,0,7.46-1.1,10.51-2.99c2.07,5.1,7.06,8.7,12.9,8.7c4.36,0,8.25-2,10.8-5.14
		c4.79,7.25,13,12.04,22.34,12.04c12.12,0,22.36-8.07,25.64-19.13c3.59,5.32,9.67,8.82,16.57,8.82c3.86,0,7.46-1.1,10.51-2.99
		c2.07,5.1,7.06,8.7,12.9,8.7c4.36,0,8.25-2,10.8-5.14c4.79,7.25,13,12.04,22.34,12.04c12.41,0,22.84-8.45,25.87-19.91
		c3.63,5.03,9.53,8.3,16.2,8.3c3.86,0,7.46-1.1,10.51-2.99c2.07,5.1,7.06,8.7,12.9,8.7c4.36,0,8.25-2,10.8-5.14
		c4.79,7.25,13,12.04,22.34,12.04c12.75,0,23.41-8.92,26.09-20.86c0.22,0.01,0.44,0.03,0.66,0.03c6.69,0,12.37-4.24,14.55-10.17
		c3.94,2.14,8.45,3.36,13.25,3.36c7.35,0,14.03-2.86,19-7.52c1.72,5.43,6.79,9.36,12.79,9.36c2.59,0,5.01-0.75,7.06-2.02
		c1.39,3.43,4.74,5.85,8.67,5.85c2.93,0,5.54-1.35,7.26-3.45c3.21,4.87,8.73,8.09,15.01,8.09c8.56,0,15.72-5.99,17.53-14.01
		c0.15,0.01,0.29,0.02,0.44,0.02c4.49,0,8.31-2.85,9.77-6.83c2.65,1.44,5.68,2.25,8.9,2.25c10.31,0,18.67-8.36,18.67-18.67
		C846.45,787.21,840.12,779.72,831.69,777.92z"/>
	<circle cx="391.93" cy="735.77" r="5.76"/>
	<circle cx="732.54" cy="739.36" r="4.64"/>
	<polygon class="st3" points="488,503.62 491.69,511.3 499.96,512.53 493.98,518.5 495.39,526.93 488,522.95 480.61,526.93 
		482.02,518.5 476.05,512.53 484.31,511.3 	"/>
	<polygon class="st3" points="544.1,469.33 547.91,476.06 556.42,477.14 550.26,482.38 551.72,489.77 544.1,486.28 536.49,489.77 
		537.94,482.38 531.78,477.14 540.29,476.06 	"/>
	<circle class="st4" cx="548.3" cy="469.46" r="248.79"/>
	
		<linearGradient id="SVGID_00000054947836609686752930000003727725062396315316_" gradientUnits="userSpaceOnUse" x1="268.4222" y1="234.5854" x2="624.0919" y2="525.8221">
		<stop  offset="0.1513" style="stop-color:#F15A24"/>
		<stop  offset="0.5007" style="stop-color:#FBB03B"/>
		<stop  offset="0.5507" style="stop-color:#FAA738"/>
		<stop  offset="0.6338" style="stop-color:#F78D32"/>
		<stop  offset="0.7392" style="stop-color:#F26427"/>
		<stop  offset="0.7624" style="stop-color:#F15A24"/>
	</linearGradient>
	<circle style="fill:url(#SVGID_00000054947836609686752930000003727725062396315316_);" cx="543.82" cy="460.09" r="248.79"/>
	<path class="st6" d="M783.56,410.92c23.14,30.18,7.41,174.13-89.62,248.51s-238.63,51.02-261.77,20.84
		c-12.93-16.87,37.39-25.77,68.32-65.4c24.41-31.27,22.68-91.12,65.48-123.93c41.89-32.11,86.64-6.89,122.66-22.42
		C736.07,448.07,770.41,393.77,783.56,410.92z"/>
	<path class="st7" d="M536.26,690.32c-17.25-20.75,72.4-28.12,140.83-85.01c68.43-56.89,89.73-141.75,106.98-121
		c17.25,20.75-11.19,109.49-79.62,166.38S553.51,711.07,536.26,690.32z"/>
	<path class="st8" d="M698.75,307.69c0.58-1.28,1.05-2.59,1.37-3.96c6.11-26.28-40.43-59.57-103.95-74.34
		c-63.52-14.77-119.97-5.44-126.08,20.85c-6.11,26.28,40.43,59.57,103.95,74.34c1.43,0.33,2.85,0.65,4.27,0.96
		c8.44,15.5,33.79,30.93,65.86,38.39c42.32,9.84,80.28,2.06,84.8-17.37C731.95,333.72,719.63,319.03,698.75,307.69z"/>
	<path class="st9" d="M324.81,530.01c-30.13-23.2-33.77-136.03,30.08-218.95s171.01-104.53,201.14-81.33s2.8,109.23-61.05,192.15
		S354.95,553.21,324.81,530.01z"/>
	
		<ellipse transform="matrix(0.6101 -0.7923 0.7923 0.6101 -75.3741 441.272)" class="st3" cx="410.67" cy="297.22" rx="46.42" ry="25.65"/>
	<ellipse transform="matrix(0.5 -0.866 0.866 0.5 -119.385 476.8638)" class="st3" cx="353.28" cy="341.82" rx="25.71" ry="11.01"/>
	<ellipse transform="matrix(0.5 -0.866 0.866 0.5 -115.6023 498.1632)" class="st3" cx="373.62" cy="349.2" rx="10.11" ry="3.95"/>
	<g class="st10">
		<g>
			<path class="st11" d="M673.04,491.56c1.83-11.92,3.54-25.39,3.54-34.01c0-4.99,0-8.1,0-9.98c0.08-0.08,0.12-0.12,0.12-0.12
				c0-0.07,0-0.13,0-0.19c0,0,0-0.74-0.14-2.03c-0.15-3.06-1.66-19.65-17.53-32.41c-1.16-0.95-2.41-1.89-3.73-2.79
				c-0.93-0.64-2.1-0.79-3.14-0.45l0.1-0.18c0,0-0.25,0.13-0.69,0.43c-0.08,0.04-0.16,0.09-0.23,0.14c-0.96,0.61-1.88,1.25-2.76,1.9
				c0.11-0.1,0.22-0.19,0.33-0.28c-1.72,1.25-3.29,2.56-4.71,3.92c-14.08,13.17-14.08,30.24-14.08,30.24c0,0.01,0,0.01,0,0.02
				c-0.02,0.38-0.02,0.58-0.02,0.58c0,1.6,0,4.88,0,11.19c0,8.57,1.55,22.16,3.19,34.18c-0.34-0.3-0.82-0.19-1.37,0.24l0,0
				c-0.1,0.03-0.26,0.17-0.47,0.42c-3.2,3.22-8.27,15.2-6.92,23.35c1.84,11.07,7.43,23.06,10.14,16.49
				c2.73-6.61,3.62-8.85,3.1-14.27c0.61,0.52,1.79,1.14,4.06,1.64c0.04,0.04,0.08,0.08,0.13,0.12c0.44,3.06,0.74,4.94,0.74,4.94
				s-0.22,2.73,8.67,3.08c0.02,0.67,0.03,1.12,0.03,1.27c0,1.53,0.3,3.37,1.59,3.37s1.62-2.44,1.66-3.51c0-0.1,0.02-0.49,0.06-1.11
				c0.01,0,0.02,0,0.02,0l0.5,0.02c0-0.01,0-0.02,0-0.04c8.76-0.35,8.04-3.07,8.04-3.07s0.33-1.88,0.83-4.95
				c2.52-0.52,3.68-1.2,4.2-1.76c-0.52,5.43,0.37,7.66,3.1,14.28c2.72,6.57,8.31-5.42,10.14-16.49
				C683.17,505.95,675.6,490.73,673.04,491.56z"/>
			<path class="st11" d="M648.9,411.57c0.77-0.56,1.58-1.11,2.41-1.65C651.32,409.93,650.37,410.34,648.9,411.57z"/>
		</g>
	</g>
	<circle class="st3" cx="571.56" cy="773.59" r="22.66"/>
	
		<linearGradient id="SVGID_00000168075641826690182010000007804790191157450640_" gradientUnits="userSpaceOnUse" x1="543.5405" y1="783.1008" x2="543.5405" y2="471.724">
		<stop  offset="0.1732" style="stop-color:#F15A24"/>
		<stop  offset="0.3436" style="stop-color:#FBB641"/>
		<stop  offset="0.3746" style="stop-color:#FCC54F"/>
		<stop  offset="0.4341" style="stop-color:#FEED73"/>
		<stop  offset="0.4497" style="stop-color:#FFF87D"/>
		<stop  offset="0.7235" style="stop-color:#FFFFFF"/>
	</linearGradient>
	<path style="fill:url(#SVGID_00000168075641826690182010000007804790191157450640_);" d="M499.33,783.1h88.42
		c0,0-5.36-26.59-9.73-59.53c-4.37-32.93-14.28-83.53-12.78-117.09c1.47-32.86-3.63-54.55-1.91-67.65
		c1.72-13.1,0.77-67.11,0.77-67.11h-45.67c0,0,2.78,49.53,4.88,63.26c2.1,13.73-0.14,33.95,0.03,65.71
		c0.17,31.76-6.55,84.05-10.44,115.06S499.33,783.1,499.33,783.1z"/>
	<path class="st13" d="M575.33,708.65c89.19-11.38,163.61-69.98,197.43-149.95H314.31c34.07,80.54,109.34,139.41,199.4,150.18"/>
	
		<linearGradient id="SVGID_00000081630075548985756230000016731957686707068577_" gradientUnits="userSpaceOnUse" x1="255.8544" y1="787.7637" x2="841.9819" y2="787.7637">
		<stop  offset="0.2207" style="stop-color:#FFFFFF"/>
		<stop  offset="0.3101" style="stop-color:#FFF87D"/>
		<stop  offset="0.3547" style="stop-color:#FBB03B"/>
		<stop  offset="0.3708" style="stop-color:#FAA738"/>
		<stop  offset="0.3974" style="stop-color:#F78D32"/>
		<stop  offset="0.4311" style="stop-color:#F26427"/>
		<stop  offset="0.4385" style="stop-color:#F15A24"/>
		<stop  offset="0.5615" style="stop-color:#F36C2E"/>
		<stop  offset="0.6508" style="stop-color:#F7A04B"/>
		<stop  offset="0.7235" style="stop-color:#FFF87D"/>
		<stop  offset="0.7905" style="stop-color:#FFFFFF"/>
	</linearGradient>
	<path style="fill:url(#SVGID_00000081630075548985756230000016731957686707068577_);" d="M827.22,781.42
		c0.31-1.13,0.48-2.31,0.48-3.53c0-7.44-6.03-13.47-13.47-13.47c-1.89,0-3.69,0.39-5.32,1.09c-6.45-9.48-17.33-15.71-29.66-15.71
		c-16.42,0-30.25,11.04-34.49,26.1c-3.57-2.27-7.8-3.59-12.34-3.59c-1.85,0-3.65,0.22-5.37,0.64c-1.39-0.54-2.83-0.98-4.31-1.3
		c0.45-1.68,0.7-3.44,0.7-5.26c0-11.08-8.98-20.05-20.05-20.05c-2.81,0-5.49,0.58-7.92,1.63c-9.6-14.12-25.79-23.39-44.15-23.39
		c-17.38,0-32.81,8.31-42.56,21.17c-1.29-0.26-2.62-0.4-3.99-0.4c-2.81,0-5.49,0.58-7.92,1.63c-9.6-14.12-25.79-23.39-44.15-23.39
		c-16.89,0-31.93,7.85-41.71,20.09c-1.59-0.41-3.26-0.62-4.98-0.62c-2.81,0-5.49,0.58-7.92,1.63c-9.6-14.12-25.79-23.39-44.15-23.39
		c-24.44,0-45.02,16.43-51.35,38.85c-5.31-3.38-11.61-5.35-18.37-5.35c-9.67,0-18.39,4.01-24.62,10.44
		c-1.48,0.12-2.9,0.48-4.21,1.04c-6.45-9.48-17.33-15.71-29.66-15.71c-16.42,0-30.25,11.04-34.49,26.1
		c-3.57-2.27-7.8-3.59-12.34-3.59c-12.72,0-23.03,10.31-23.03,23.03s10.31,23.03,23.03,23.03c1.09,0,2.16-0.08,3.22-0.23
		c1.39,5.92,6.7,10.33,13.04,10.33c2.59,0,5.01-0.75,7.06-2.02c1.39,3.43,4.74,5.85,8.67,5.85c2.93,0,5.54-1.35,7.26-3.45
		c3.21,4.87,8.73,8.09,15.01,8.09c8.56,0,15.72-5.99,17.53-14.01c0.15,0.01,0.29,0.02,0.44,0.02c4.49,0,8.31-2.85,9.77-6.83
		c2,1.09,4.23,1.81,6.59,2.11c4.95,2.78,10.67,4.38,16.75,4.38c1.62,0,3.21-0.12,4.77-0.34c2.07,8.81,9.98,15.37,19.43,15.37
		c3.86,0,7.46-1.1,10.51-2.99c2.07,5.1,7.06,8.7,12.9,8.7c4.36,0,8.25-2,10.8-5.14c4.79,7.25,13,12.04,22.34,12.04
		c12.12,0,22.36-8.07,25.64-19.13c3.59,5.32,9.67,8.82,16.57,8.82c3.86,0,7.46-1.1,10.51-2.99c2.07,5.1,7.06,8.7,12.9,8.7
		c4.36,0,8.25-2,10.8-5.14c4.79,7.25,13,12.04,22.34,12.04c12.41,0,22.84-8.45,25.87-19.91c3.63,5.03,9.53,8.3,16.2,8.3
		c3.86,0,7.46-1.1,10.51-2.99c2.07,5.1,7.06,8.7,12.9,8.7c4.36,0,8.25-2,10.8-5.14c4.79,7.25,13,12.04,22.34,12.04
		c12.75,0,23.41-8.92,26.09-20.86c0.22,0.01,0.44,0.03,0.66,0.03c6.69,0,12.37-4.24,14.55-10.17c3.94,2.14,8.45,3.36,13.25,3.36
		c7.35,0,14.03-2.86,19-7.52c1.72,5.43,6.79,9.36,12.79,9.36c2.59,0,5.01-0.75,7.06-2.02c1.39,3.43,4.74,5.85,8.67,5.85
		c2.93,0,5.54-1.35,7.26-3.45c3.21,4.87,8.73,8.09,15.01,8.09c8.56,0,15.72-5.99,17.53-14.01c0.15,0.01,0.29,0.02,0.44,0.02
		c4.49,0,8.31-2.85,9.77-6.83c2.65,1.44,5.68,2.25,8.9,2.25c10.31,0,18.67-8.36,18.67-18.67
		C841.98,790.71,835.65,783.22,827.22,781.42z"/>
	<path class="st3" d="M469.12,771.01c13.84-8.53,31.81-4.49,40.12,9.01c0.17,0.27,0.32,0.54,0.47,0.82
		c-0.66-1.88-1.52-3.72-2.61-5.49c-8.31-13.5-26.28-17.53-40.12-9.01c-13.57,8.36-18.13,25.67-10.48,39.06
		C452.13,792.88,457.09,778.42,469.12,771.01z"/>
	<path class="st3" d="M509.9,801.98c9.63,2.75,15.27,12.57,12.6,21.95c-0.05,0.19-0.11,0.37-0.17,0.55
		c0.58-1.08,1.06-2.23,1.41-3.46c2.67-9.38-2.97-19.2-12.6-21.95c-9.44-2.69-19.2,2.42-22.11,11.45
		C492.9,803.35,501.52,799.6,509.9,801.98z"/>
	<path class="st3" d="M585.69,802.84c5.63-2.02,11.77,0.76,13.72,6.21c0.04,0.11,0.07,0.22,0.11,0.33
		c-0.09-0.72-0.26-1.44-0.51-2.15c-1.95-5.44-8.09-8.22-13.72-6.21c-5.52,1.97-8.49,7.82-6.77,13.18
		C577.9,809.39,580.79,804.59,585.69,802.84z"/>
	<path class="st3" d="M534.65,775.25c8.27-2.02,16.27,1.6,17.85,8.09c0.03,0.13,0.06,0.26,0.08,0.39c0.02-0.85-0.06-1.71-0.27-2.55
		c-1.59-6.49-9.58-10.11-17.85-8.09c-8.11,1.98-13.47,8.65-12.19,15.03C522.42,782.45,527.46,777.01,534.65,775.25z"/>
	<path class="st3" d="M611.46,777.6c10.07-3.6,20.73,0.45,23.81,9.06c0.06,0.17,0.11,0.34,0.17,0.52c-0.11-1.15-0.36-2.3-0.77-3.42
		c-3.08-8.61-13.74-12.66-23.81-9.06c-9.87,3.53-15.5,13.11-12.82,21.59C597.29,788.62,602.71,780.73,611.46,777.6z"/>
	<path class="st3" d="M560.13,775.43c4.84-1.18,9.49,0.83,10.38,4.49c0.02,0.07,0.03,0.15,0.05,0.22c0.02-0.48-0.03-0.96-0.15-1.44
		c-0.9-3.67-5.55-5.68-10.38-4.5c-4.74,1.16-7.9,4.96-7.18,8.56C552.96,779.57,555.93,776.46,560.13,775.43z"/>
	<path class="st3" d="M528.74,815.83c3.61-0.88,7.16,0.97,7.94,4.14c0.02,0.06,0.03,0.13,0.04,0.19c0-0.41-0.05-0.83-0.15-1.24
		c-0.77-3.17-4.33-5.02-7.94-4.14c-3.54,0.86-5.81,4.03-5.17,7.14C523.45,819.18,525.6,816.6,528.74,815.83z"/>
	<polygon class="st3" points="839.15,598.97 840.92,602.09 844.87,602.6 842.01,605.03 842.68,608.46 839.15,606.84 835.61,608.46 
		836.29,605.03 833.43,602.6 837.38,602.09 	"/>
	<g>
		<path d="M542.57,502.27c4.23,0,5.32-7.98,5.44-11.5c0.13-3.53,6.6-109.81,6.6-109.81c0-6.44-4.58-11.71-10.18-11.71h-0.59
			c-5.6,0-10.18,5.27-10.18,11.71c0,0,3.71,105.28,3.71,110.29S538.34,502.27,542.57,502.27z"/>
		<path class="st3" d="M542.57,502.27c5.72-0.76,5.02-11.11,5.1-15.41c-0.01-5.89-0.04-11.78,0.12-17.66
			c1.54-25.42,3.79-62.8,5.31-88.13c0.24-8.58-9.32-14.27-15.5-7.17c-1.63,1.98-2.47,4.61-2.44,7.21l0.59,17.65l1.19,35.31
			l1.19,35.31c-0.01,5.89-0.19,11.77-0.35,17.65C537.88,491.47,536.31,501.66,542.57,502.27L542.57,502.27z M542.57,502.27
			c-6.02-0.28-5.28-10.95-5.9-15.24c-1.59-11.76-2.33-40.7-2.73-52.93c-0.39-11.59-1.41-41.7-1.78-52.93
			c-0.27-8.91,8.21-16.4,16.9-12.32c4.56,2.26,7.14,7.35,7.04,12.32c-1.52,25.29-3.77,62.75-5.28,88.14
			c-0.55,5.87-1.28,11.73-1.99,17.6C548.14,491.18,548.13,501.68,542.57,502.27L542.57,502.27z"/>
	</g>
	<circle class="st3" cx="387.46" cy="739.27" r="5.76"/>
	<circle class="st3" cx="728.07" cy="742.86" r="4.64"/>
	<path class="st3" d="M690.61,783.66c12,1.58,20.57,11.59,19.16,22.37c-0.03,0.22-0.07,0.43-0.1,0.64c0.49-1.28,0.84-2.63,1.03-4.04
		c1.42-10.78-7.16-20.79-19.16-22.37c-11.76-1.55-22.43,5.59-24.19,16.01C670.6,787.75,680.18,782.29,690.61,783.66z"/>
	<path class="st3" d="M706.68,753.36c8.15,1.98,13.32,9.51,11.55,16.84c-0.04,0.15-0.08,0.29-0.12,0.43
		c0.43-0.85,0.77-1.75,1.01-2.71c1.78-7.32-3.39-14.86-11.55-16.84c-7.99-1.94-15.87,2.19-17.86,9.24
		C692.58,754.69,699.59,751.64,706.68,753.36z"/>
	<path class="st3" d="M538.33,775.03c14.67,2.34,24.99,14.12,23.04,26.31c-0.04,0.24-0.09,0.48-0.14,0.72
		c0.62-1.44,1.08-2.95,1.33-4.55c1.94-12.19-8.37-23.97-23.04-26.31c-14.38-2.29-27.59,5.33-29.95,17.11
		C513.74,778.77,525.58,773,538.33,775.03z"/>
	<path class="st3" d="M576.09,779.51c10.17-3.18,20.74,1.7,23.62,10.91c0.06,0.18,0.11,0.37,0.16,0.55
		c-0.09-1.21-0.31-2.43-0.69-3.63c-2.88-9.21-13.46-14.09-23.62-10.91c-9.96,3.12-15.83,12.82-13.35,21.88
		C561.64,790.23,567.25,782.27,576.09,779.51z"/>
	<path class="st3" d="M421.46,791.58c9.32-4.42,21.16,1.04,26.45,12.19c0.11,0.22,0.2,0.45,0.3,0.67c-0.4-1.49-0.95-2.97-1.64-4.42
		c-5.29-11.15-17.13-16.61-26.45-12.19c-9.13,4.33-12.44,16.54-7.59,27.52C409.84,805.46,413.36,795.42,421.46,791.58z"/>
	<path class="st3" d="M461.94,793.86c13.54-4.9,27.93,0.54,32.13,12.14c0.08,0.23,0.16,0.46,0.23,0.7c-0.16-1.55-0.5-3.1-1.05-4.62
		c-4.2-11.61-18.58-17.04-32.13-12.14c-13.27,4.8-20.81,17.75-17.15,29.19C442.91,808.79,450.17,798.12,461.94,793.86z"/>
	<path class="st3" d="M538.25,819.79c12.33,0,22.32,7.71,22.32,17.22c0,0.19-0.01,0.38-0.02,0.57c0.32-1.17,0.5-2.38,0.5-3.62
		c0-9.51-9.99-17.22-22.32-17.22c-12.08,0-21.92,7.41-22.3,16.65C518.58,825.62,527.53,819.79,538.25,819.79z"/>
	<path class="st15" d="M629.23,810.67c7.31-0.56,13.51,2.75,13.87,7.39c0.01,0.09,0.01,0.18,0.01,0.28
		c0.15-0.58,0.21-1.18,0.16-1.79c-0.35-4.64-6.56-7.94-13.87-7.39c-7.16,0.55-12.71,4.6-12.6,9.13
		C617.79,814.4,622.88,811.15,629.23,810.67z"/>
	<path class="st15" d="M650.82,814.93c4.63-0.35,8.56,1.57,8.76,4.3c0,0.05,0,0.11,0.01,0.16c0.1-0.34,0.14-0.7,0.11-1.05
		c-0.21-2.73-4.13-4.66-8.76-4.3c-4.54,0.35-8.07,2.76-8.01,5.42C643.55,817.17,646.79,815.24,650.82,814.93z"/>
	<path class="st3" d="M785.35,764.95c12,1.58,20.57,11.59,19.16,22.37c-0.03,0.22-0.07,0.43-0.1,0.64c0.49-1.28,0.84-2.63,1.02-4.04
		c1.42-10.78-7.16-20.79-19.16-22.37c-11.76-1.55-22.43,5.59-24.19,16.01C765.34,769.03,774.92,763.57,785.35,764.95z"/>
	<path class="st3" d="M730.18,779.82c7.52-1.68,14.84,2.44,16.35,9.2c0.03,0.13,0.05,0.27,0.08,0.4c0.01-0.87-0.07-1.76-0.27-2.64
		c-1.51-6.76-8.83-10.87-16.35-9.2c-7.37,1.64-12.2,8.24-10.97,14.87C719.1,786.64,723.64,781.28,730.18,779.82z"/>
	<path class="st3" d="M760.31,792.65c12.13-2.71,23.94,3.94,26.37,14.84c0.05,0.22,0.09,0.43,0.13,0.65
		c0.02-1.41-0.12-2.84-0.43-4.26c-2.43-10.9-14.24-17.54-26.37-14.84c-11.89,2.65-19.68,13.3-17.7,23.98
		C742.44,803.64,749.76,795,760.31,792.65z"/>
	<path class="st15" d="M794.55,801.84c4.63-0.35,8.56,1.57,8.76,4.3c0,0.05,0,0.11,0.01,0.16c0.1-0.34,0.14-0.7,0.11-1.05
		c-0.21-2.73-4.13-4.66-8.76-4.3c-4.54,0.35-8.07,2.76-8.01,5.42C787.29,804.08,790.52,802.15,794.55,801.84z"/>
	<path class="st3" d="M303.83,790.33c14.67,2.34,24.99,14.12,23.04,26.31c-0.04,0.24-0.09,0.48-0.14,0.72
		c0.62-1.44,1.08-2.95,1.33-4.55c1.94-12.19-8.37-23.97-23.04-26.31c-14.38-2.29-27.59,5.33-29.95,17.11
		C279.24,794.07,291.08,788.3,303.83,790.33z"/>
	<path class="st3" d="M331.01,775.57c10.54,1.58,17.92,10.59,16.5,20.13c-0.03,0.19-0.07,0.38-0.1,0.57
		c0.45-1.13,0.78-2.32,0.97-3.57c1.43-9.54-5.96-18.55-16.5-20.13c-10.33-1.54-19.84,4.63-21.56,13.86
		C313.33,778.9,321.85,774.2,331.01,775.57z"/>
	<path class="st15" d="M339.9,807.03c7.31-0.56,13.51,2.75,13.87,7.39c0.01,0.09,0.01,0.18,0.01,0.28c0.15-0.58,0.21-1.18,0.16-1.79
		c-0.35-4.64-6.56-7.94-13.87-7.39c-7.16,0.55-12.71,4.6-12.6,9.13C328.46,810.76,333.55,807.51,339.9,807.03z"/>
	<circle class="st16" cx="858.4" cy="809.82" r="8.21"/>
	<circle class="st17" cx="245.29" cy="810.07" r="9.28"/>
	<path class="st18" d="M827.4,796.16c0.31-0.91,0.48-1.87,0.48-2.86c0-6.02-6.03-10.9-13.47-10.9c-1.89,0-3.69,0.32-5.32,0.89
		c-6.45-7.67-17.33-12.71-29.66-12.71c-16.42,0-30.25,8.93-34.49,21.11c-3.57-1.84-7.8-2.91-12.34-2.91c-1.85,0-3.65,0.18-5.37,0.52
		c-1.39-0.44-2.83-0.8-4.31-1.05c0.46-1.36,0.7-2.78,0.7-4.26c0-8.96-8.98-16.22-20.05-16.22c-2.81,0-5.49,0.47-7.92,1.32
		c-9.6-11.42-25.79-18.92-44.15-18.92c-17.38,0-32.81,6.72-42.56,17.13c-1.29-0.21-2.62-0.32-3.99-0.32c-2.81,0-5.49,0.47-7.92,1.32
		c-9.6-11.42-25.79-18.92-44.15-18.92c-16.89,0-31.93,6.35-41.71,16.26c-1.59-0.33-3.26-0.51-4.98-0.51c-2.81,0-5.49,0.47-7.92,1.32
		c-9.6-11.42-25.79-18.92-44.15-18.92c-24.44,0-45.02,13.29-51.35,31.43c-5.31-2.74-11.61-4.33-18.37-4.33
		c-9.67,0-18.39,3.24-24.62,8.45c-1.48,0.1-2.9,0.38-4.21,0.84c-6.45-7.67-17.33-12.71-29.66-12.71c-16.42,0-30.25,8.93-34.49,21.11
		c-3.57-1.84-7.8-2.91-12.34-2.91c-12.72,0-23.03,8.34-23.03,18.63c0,10.29,10.31,18.63,23.03,18.63c1.09,0,2.16-0.07,3.22-0.18
		c1.39,4.79,6.7,8.36,13.04,8.36c2.59,0,5.01-0.61,7.06-1.64c1.39,2.78,4.74,4.74,8.67,4.74c2.93,0,5.54-1.09,7.26-2.79
		c3.21,3.94,8.73,6.54,15.01,6.54c8.56,0,15.72-4.85,17.53-11.34c0.15,0.01,0.29,0.02,0.44,0.02c4.49,0,8.31-2.3,9.77-5.53
		c2,0.88,4.23,1.47,6.59,1.7c4.95,2.25,10.67,3.54,16.75,3.54c1.62,0,3.21-0.1,4.77-0.27c2.07,7.13,9.98,12.44,19.43,12.44
		c3.86,0,7.46-0.89,10.51-2.42c2.07,4.12,7.06,7.04,12.9,7.04c4.36,0,8.25-1.62,10.8-4.16c4.79,5.87,13,9.74,22.34,9.74
		c12.12,0,22.36-6.53,25.64-15.47c3.59,4.3,9.67,7.13,16.57,7.13c3.86,0,7.46-0.89,10.51-2.42c2.07,4.12,7.06,7.04,12.9,7.04
		c4.36,0,8.25-1.62,10.8-4.16c4.79,5.87,13,9.74,22.34,9.74c12.41,0,22.84-6.84,25.87-16.11c3.63,4.07,9.53,6.71,16.2,6.71
		c3.86,0,7.46-0.89,10.51-2.42c2.07,4.12,7.06,7.04,12.9,7.04c4.36,0,8.25-1.62,10.8-4.16c4.79,5.87,13,9.74,22.34,9.74
		c12.75,0,23.41-7.22,26.09-16.87c0.22,0.01,0.44,0.03,0.66,0.03c6.69,0,12.37-3.43,14.55-8.23c3.94,1.73,8.45,2.71,13.25,2.71
		c7.35,0,14.03-2.31,19-6.08c1.72,4.39,6.79,7.57,12.79,7.57c2.59,0,5.01-0.61,7.06-1.64c1.39,2.78,4.74,4.74,8.67,4.74
		c2.93,0,5.54-1.09,7.26-2.79c3.21,3.94,8.73,6.54,15.01,6.54c8.56,0,15.72-4.85,17.53-11.34c0.15,0.01,0.29,0.02,0.44,0.02
		c4.49,0,8.31-2.3,9.77-5.53c2.65,1.16,5.68,1.82,8.9,1.82c10.31,0,18.67-6.76,18.67-15.11
		C842.17,803.67,835.84,797.61,827.4,796.16z"/>
	<ellipse class="st3" cx="386.29" cy="776.3" rx="22.08" ry="9.26"/>
	<ellipse class="st3" cx="398.5" cy="784.29" rx="11.04" ry="6.51"/>
	<ellipse class="st3" cx="738.7" cy="783.63" rx="18.07" ry="8.84"/>
	<ellipse class="st3" cx="756.77" cy="781" rx="11.71" ry="6.31"/>
	<ellipse class="st3" cx="285.14" cy="796.26" rx="14.38" ry="7.03"/>
	<path class="st16" d="M828.01,812.24c0.31-0.66,0.48-1.35,0.48-2.07c0-4.36-6.03-7.9-13.47-7.9c-1.89,0-3.69,0.23-5.32,0.64
		c-6.45-5.56-17.33-9.22-29.66-9.22c-16.42,0-30.25,6.47-34.49,15.31c-3.57-1.33-7.8-2.11-12.34-2.11c-1.85,0-3.65,0.13-5.37,0.37
		c-1.39-0.32-2.83-0.58-4.31-0.76c0.45-0.98,0.7-2.02,0.7-3.09c0-6.5-8.98-11.76-20.05-11.76c-2.81,0-5.49,0.34-7.92,0.95
		c-9.6-8.28-25.79-13.72-44.15-13.72c-17.38,0-32.81,4.88-42.56,12.42c-1.29-0.15-2.62-0.23-3.99-0.23c-2.81,0-5.49,0.34-7.92,0.95
		c-9.6-8.28-25.79-13.72-44.15-13.72c-16.89,0-31.93,4.61-41.71,11.79c-1.59-0.24-3.26-0.37-4.98-0.37c-2.81,0-5.49,0.34-7.92,0.95
		c-9.6-8.28-25.79-13.72-44.15-13.72c-24.44,0-45.02,9.64-51.35,22.78c-5.31-1.98-11.61-3.14-18.37-3.14
		c-9.67,0-18.39,2.35-24.62,6.13c-1.48,0.07-2.9,0.28-4.21,0.61c-6.45-5.56-17.33-9.22-29.66-9.22c-16.42,0-30.25,6.47-34.49,15.31
		c-3.57-1.33-7.8-2.11-12.34-2.11c-12.72,0-22.34-1.41-22.34,6.04c0,7.46,9.62,20.97,22.34,20.97c1.09,0,2.16-0.05,3.22-0.13
		c1.39,3.47,6.7,6.06,13.04,6.06c2.59,0,5.01-0.44,7.06-1.19c1.39,2.01,4.74,3.43,8.67,3.43c2.93,0,5.54-0.79,7.26-2.03
		c3.21,2.86,8.73,4.74,15.01,4.74c8.56,0,15.72-3.51,17.53-8.22c0.15,0,0.29,0.01,0.44,0.01c4.49,0,8.31-1.67,9.77-4.01
		c2,0.64,4.23,1.06,6.59,1.24c4.95,1.63,10.67,2.57,16.75,2.57c1.62,0,3.21-0.07,4.77-0.2c2.07,5.17,9.98,9.02,19.43,9.02
		c3.86,0,7.46-0.64,10.51-1.76c2.07,2.99,7.06,5.1,12.9,5.1c4.36,0,8.25-1.18,10.8-3.01c4.79,4.25,13,7.06,22.34,7.06
		c12.12,0,22.36-4.73,25.64-11.22c3.59,3.12,9.67,5.17,16.57,5.17c3.86,0,7.46-0.64,10.51-1.76c2.07,2.99,7.06,5.1,12.9,5.1
		c4.36,0,8.25-1.18,10.8-3.01c4.79,4.25,13,7.06,22.34,7.06c12.41,0,22.84-4.96,25.87-11.68c3.63,2.95,9.53,4.87,16.2,4.87
		c3.86,0,7.46-0.64,10.51-1.76c2.07,2.99,7.06,5.1,12.9,5.1c4.36,0,8.25-1.18,10.8-3.01c4.79,4.25,13,7.06,22.34,7.06
		c12.75,0,23.41-5.23,26.09-12.23c0.22,0.01,0.44,0.02,0.66,0.02c6.69,0,12.37-2.49,14.55-5.96c3.94,1.26,8.45,1.97,13.25,1.97
		c7.35,0,14.03-1.68,19-4.41c1.72,3.18,6.79,5.49,12.79,5.49c2.59,0,5.01-0.44,7.06-1.19c1.39,2.01,4.74,3.43,8.67,3.43
		c2.93,0,5.54-0.79,7.26-2.03c3.21,2.86,8.73,4.74,15.01,4.74c8.56,0,15.72-3.51,17.53-8.22c0.15,0,0.29,0.01,0.44,0.01
		c4.49,0,8.31-1.67,9.77-4.01c2.65,0.84,5.68,1.32,8.9,1.32c10.31,0,18.67-4.9,18.67-10.95
		C842.78,817.69,836.45,813.29,828.01,812.24z"/>
	<ellipse class="st16" cx="538.74" cy="781.84" rx="10.47" ry="5.52"/>
	<ellipse class="st16" cx="452.81" cy="777.21" rx="10.61" ry="5.52"/>
	<ellipse class="st16" cx="653.04" cy="781.27" rx="15.03" ry="10.23"/>
	<ellipse class="st16" cx="635.44" cy="781.27" rx="8.75" ry="5.81"/>
	<ellipse class="st16" cx="521.05" cy="787.76" rx="13.9" ry="9.23"/>
	
		<ellipse transform="matrix(0.2887 -0.9574 0.9574 0.2887 -411.8943 1002.4327)" class="st16" cx="468.67" cy="778.41" rx="8.24" ry="10.39"/>
	
		<ellipse transform="matrix(0.2887 -0.9574 0.9574 0.2887 -514.1863 909.381)" class="st16" cx="354.91" cy="800.73" rx="3.9" ry="6.64"/>
	
		<ellipse transform="matrix(0.9915 -0.1299 0.1299 0.9915 -98.8339 104.3585)" class="st16" cx="750.84" cy="810.07" rx="17.42" ry="8.26"/>
	
		<ellipse transform="matrix(0.2186 -0.9758 0.9758 0.2186 -157.1376 1395.1862)" class="st16" cx="792.61" cy="795.71" rx="6.46" ry="11.31"/>
	
		<ellipse transform="matrix(0.2186 -0.9758 0.9758 0.2186 -230.7556 1296.7302)" class="st16" cx="694.32" cy="792.45" rx="9.55" ry="11.31"/>
	<ellipse class="st16" cx="604.29" cy="788.44" rx="15.03" ry="10.23"/>
	<ellipse class="st16" cx="395.8" cy="803.64" rx="15.03" ry="10.23"/>
	<ellipse class="st16" cx="336.2" cy="798.3" rx="15.03" ry="10.23"/>
	<path class="st17" d="M827.68,815.95c0.31-0.41,0.48-0.83,0.48-1.28c0-2.69-6.03-4.87-13.47-4.87c-1.89,0-3.69,0.14-5.32,0.4
		c-6.45-3.43-17.33-5.68-29.66-5.68c-16.42,0-30.25,3.99-34.49,9.44c-3.57-0.82-7.8-1.3-12.34-1.3c-1.85,0-3.65,0.08-5.37,0.23
		c-1.39-0.2-2.83-0.36-4.31-0.47c0.46-0.61,0.7-1.24,0.7-1.9c0-4.01-8.98-7.25-20.05-7.25c-2.81,0-5.49,0.21-7.92,0.59
		c-9.6-5.1-25.79-8.46-44.15-8.46c-17.38,0-32.81,3.01-42.56,7.66c-1.29-0.09-2.62-0.14-3.99-0.14c-2.81,0-5.49,0.21-7.92,0.59
		c-9.6-5.1-25.79-8.46-44.15-8.46c-16.89,0-31.93,2.84-41.71,7.27c-1.59-0.15-3.26-0.23-4.98-0.23c-2.81,0-5.49,0.21-7.92,0.59
		c-9.6-5.1-25.79-8.46-44.15-8.46c-24.44,0-45.02,5.94-51.35,14.05c-5.31-1.22-11.61-1.93-18.37-1.93c-9.67,0-18.39,1.45-24.62,3.78
		c-1.48,0.04-2.9,0.17-4.21,0.38c-6.45-3.43-17.33-5.68-29.66-5.68c-16.42,0-30.25,3.99-34.49,9.44c-3.57-0.82-7.8-1.3-12.34-1.3
		c-12.72,0-22.34-0.87-22.34,3.73s9.62,12.93,22.34,12.93c1.09,0,2.16-0.03,3.22-0.08c1.39,2.14,6.7,3.74,13.04,3.74
		c2.59,0,5.01-0.27,7.06-0.73c1.39,1.24,4.74,2.12,8.67,2.12c2.93,0,5.54-0.49,7.26-1.25c3.21,1.76,8.73,2.92,15.01,2.92
		c8.56,0,15.72-2.17,17.53-5.07c0.15,0,0.29,0.01,0.44,0.01c4.49,0,8.31-1.03,9.77-2.47c2,0.39,4.23,0.66,6.59,0.76
		c4.95,1.01,10.67,1.58,16.75,1.58c1.62,0,3.21-0.04,4.77-0.12c2.07,3.19,9.98,5.56,19.43,5.56c3.86,0,7.46-0.4,10.51-1.08
		c2.07,1.84,7.06,3.15,12.9,3.15c4.36,0,8.25-0.72,10.8-1.86c4.79,2.62,13,4.35,22.34,4.35c12.12,0,22.36-2.92,25.64-6.92
		c3.59,1.92,9.67,3.19,16.57,3.19c3.86,0,7.46-0.4,10.51-1.08c2.07,1.84,7.06,3.15,12.9,3.15c4.36,0,8.25-0.73,10.8-1.86
		c4.79,2.62,13,4.35,22.34,4.35c12.41,0,22.84-3.06,25.87-7.2c3.63,1.82,9.53,3,16.2,3c3.86,0,7.46-0.4,10.51-1.08
		c2.07,1.84,7.06,3.15,12.9,3.15c4.36,0,8.25-0.72,10.8-1.86c4.79,2.62,13,4.35,22.34,4.35c12.75,0,23.41-3.23,26.09-7.54
		c0.22,0,0.44,0.01,0.66,0.01c6.69,0,12.37-1.53,14.55-3.68c3.94,0.77,8.45,1.21,13.25,1.21c7.35,0,14.03-1.03,19-2.72
		c1.72,1.96,6.79,3.39,12.79,3.39c2.59,0,5.01-0.27,7.06-0.73c1.39,1.24,4.74,2.12,8.67,2.12c2.93,0,5.54-0.49,7.26-1.25
		c3.21,1.76,8.73,2.92,15.01,2.92c8.56,0,15.72-2.17,17.53-5.07c0.15,0,0.29,0.01,0.44,0.01c4.49,0,8.31-1.03,9.77-2.47
		c2.65,0.52,5.68,0.82,8.9,0.82c10.31,0,18.67-3.02,18.67-6.75C842.45,819.31,836.12,816.6,827.68,815.95z"/>
	<ellipse class="st16" cx="458.7" cy="805.8" rx="45.13" ry="21.35"/>
	<ellipse class="st16" cx="359.04" cy="810.07" rx="28.34" ry="8.5"/>
	<ellipse class="st16" cx="312.37" cy="814.69" rx="28.34" ry="8.5"/>
	<ellipse class="st16" cx="559.3" cy="808.53" rx="39.08" ry="21.14"/>
	<ellipse class="st16" cx="599.87" cy="806.19" rx="18.25" ry="9.96"/>
	<ellipse class="st16" cx="499.33" cy="803.64" rx="15.81" ry="7.32"/>
	<ellipse class="st16" cx="483.52" cy="823.19" rx="11.43" ry="4.64"/>
	<ellipse class="st16" cx="429.25" cy="818.55" rx="17.47" ry="10.53"/>
	<ellipse class="st16" cx="660.45" cy="806.88" rx="39.91" ry="20.27"/>
	<ellipse class="st16" cx="779.92" cy="814.56" rx="33.32" ry="12.86"/>
	<ellipse class="st16" cx="685.67" cy="819.47" rx="22.73" ry="9.64"/>
	<ellipse class="st16" cx="754.44" cy="828.83" rx="17.22" ry="7.09"/>
	<ellipse class="st18" cx="552.73" cy="781" rx="13.99" ry="6.35"/>
	<ellipse class="st18" cx="433.77" cy="783.35" rx="17.68" ry="5.88"/>
	<ellipse class="st18" cx="316.53" cy="797.07" rx="9.54" ry="3.72"/>
	<ellipse class="st18" cx="762.08" cy="802.06" rx="12.74" ry="4.33"/>
	<ellipse class="st18" cx="805.95" cy="800.95" rx="10.91" ry="5.24"/>
	<path class="st18" d="M866.24,812.25c-2.68-0.66-6.74-6.43-10.13-4.41s-1.13,3.46-1.91,9.04c-4.45-3-6.71-8.39-0.68-13.65
		c4.73-4.12,11.98-0.95,13.08,4.05S866.24,812.25,866.24,812.25z"/>
	<path class="st16" d="M253.09,811.68c-2.68-0.66-6.74-6.43-10.13-4.41c-3.38,2.01-4.07,3.12-4.85,8.69c-4.45-3-3.76-8.05,2.26-13.3
		c4.73-4.12,11.98-0.95,13.08,4.05C254.57,811.7,253.09,811.68,253.09,811.68z"/>
	<g>
		<path class="st19" d="M520.93,113.87c0.19,2.37,3.65,4.34,9.31,4.2c5.13-0.13,9.28-2.05,9.26-4.49c0-0.05-0.01-0.1-0.02-0.16
			c0,0,0.46,4.41-9.24,4.65C521.04,118.3,520.93,113.87,520.93,113.87z"/>
		<path d="M583.43,157.53c12.65,21.03,20.45,48.66,15.89,51.41c-4.57,2.75-14.67-21.88-27.32-42.91s-36.03-47.5-31.47-50.25
			C545.1,113.03,570.78,136.5,583.43,157.53z"/>
		<path class="st20" d="M594.11,433.87c-6.01,36.23-4.8,39.69,7.08,68.43c8.89,21.52,27.19-17.74,33.2-53.97
			s-26.8-95.68-30.27-74.77C594.11,433.87,600.12,397.64,594.11,433.87z"/>
		
			<linearGradient id="SVGID_00000106143867485955500540000006255500140853151876_" gradientUnits="userSpaceOnUse" x1="539.9185" y1="506.353" x2="540.7144" y2="468.9441">
			<stop  offset="0.2411" style="stop-color:#FFFFFF"/>
			<stop  offset="1" style="stop-color:#460F51"/>
		</linearGradient>
		<path style="fill:url(#SVGID_00000106143867485955500540000006255500140853151876_);" d="M579.29,448.65H503
			c2.37,17.28,4.19,28.88,4.19,28.88s-0.83,10.18,34.61,10.18c35.44,0,32.76-10.18,32.76-10.18S576.62,465.94,579.29,448.65z"/>
		<path class="st20" d="M488,433.87c6.01,36.23,4.8,39.69-7.08,68.43c-8.89,21.52-27.19-17.74-33.2-53.97s26.8-95.68,30.27-74.77
			C488,433.87,481.99,397.64,488,433.87z"/>
		<g class="st22">
			<path class="st23" d="M577.28,461.32c-2.04,2.57-5.5,3.54-8.46,4.6c-3.06,0.97-6.18,1.65-9.3,2.19
				c-15.46,2.45-37.19,2.58-51.53-4.14c-1.4-0.77-2.98-1.67-3.73-3.15c1.29,0.89,2.82,1.09,4.33,1.3c8.45,0.89,23.41,0.4,32.07,0.51
				c0,0,18.39,0.01,18.39,0.01c3.07,0,6.13-0.01,9.19-0.09C571.27,462.36,574.46,462.6,577.28,461.32L577.28,461.32z"/>
		</g>
		<g class="st22">
			<path class="st23" d="M606.6,369.93c0.37,14.66-1.38,29.06-3.68,43.45c-2.47,14.36-5.48,28.56-10.59,42.3
				c-0.38-14.66,1.37-29.07,3.68-43.45C598.49,397.87,601.5,383.68,606.6,369.93L606.6,369.93z"/>
		</g>
		<path class="st24" d="M592.59,450.65c-0.13,0.69-0.18,1.4-0.21,2.1c-0.09,2.49-3.73,11.21-50.34,11.21
			c-49.73,0-52.91-9.93-53.09-11.62c-0.03-0.29-0.06-0.58-0.11-0.87c-1.68-9.94-22.86-136.11-22.86-193.46c0-59.72,0-36.62,0-36.62
			s0-74.86,69.49-119.16c3.97-2.53,9.1-2.44,12.99,0.22c69.65,47.63,69.65,118.94,69.65,118.94s0-23.89,0,36.62
			C618.11,314.83,595.37,436.06,592.59,450.65z"/>
		<path class="st25" d="M548.23,487.71c0.13-3.53,5.8-81.72,5.8-81.72c0-6.44-4.58-11.71-10.18-11.71h-0.59
			c-5.6,0-10.18,5.27-10.18,11.71c0,0,3.36,76.23,3.36,81.24"/>
		<path class="st11" d="M618.51,224.96c0-0.22,0-0.43,0-0.63c0,0,0-69.96-69.65-116.69c-3.89-2.61-9.01-2.7-12.99-0.21
			c-69.49,43.46-69.89,111.9-69.89,111.9c0,0.2,0.39,5.41,0.39,5.63c0,0,22.19,23.14,76.06,23.14S618.51,224.96,618.51,224.96z"/>
		<g>
			<circle class="st26" cx="541.48" cy="296.94" r="31.81"/>
			<g>
				<path class="st3" d="M528.1,315.9c-9.6-3.9-14.39-15.67-11.95-25.58c2.29-10.48,12.04-18.89,22.8-19.21
					c6.69-0.32,13.7,2.45,17.67,7.78c-5.87-2.38-11.66-2.83-16.86-1.54C522.32,281.76,517.1,301.94,528.1,315.9L528.1,315.9z"/>
			</g>
		</g>
		
			<linearGradient id="SVGID_00000118370682683080562010000006890784560876759441_" gradientUnits="userSpaceOnUse" x1="449.5156" y1="154.9932" x2="598.3556" y2="184.6324">
			<stop  offset="0" style="stop-color:#5D0084"/>
			<stop  offset="0.5056" style="stop-color:#7B22AF"/>
			<stop  offset="1" style="stop-color:#5D0084"/>
		</linearGradient>
		<path style="fill:url(#SVGID_00000118370682683080562010000006890784560876759441_);" d="M618.11,219.95c0-0.22,0-0.43,0-0.63
			c0,0,0-69.96-69.65-116.69c-3.89-2.61-9.01-2.7-12.99-0.21c-69.49,43.46-69.49,116.9-69.49,116.9c0,0.2,0,0.41,0,0.63
			c0,0,22.19,23.14,76.06,23.14S618.11,219.95,618.11,219.95z"/>
		<path class="st28" d="M549.78,463.97c0.13-3.53,5.8-81.72,5.8-81.72c0-6.44-4.58-11.71-10.18-11.71h-0.59
			c-5.6,0-10.18,5.27-10.18,11.71c0,0,3.36,76.23,3.36,81.24"/>
		<path class="st20" d="M540.88,502.77c4.23,0,5.32-7.98,5.44-11.5c0.13-3.53,6.6-109.81,6.6-109.81c0-6.44-4.58-11.71-10.18-11.71
			h-0.59c-5.6,0-10.18,5.27-10.18,11.71c0,0,3.71,105.28,3.71,110.29C535.68,496.75,536.65,502.77,540.88,502.77z"/>
		
			<ellipse transform="matrix(0.7071 -0.7071 0.7071 0.7071 -52.697 476.6644)" class="st29" cx="549.04" cy="301.94" rx="19.08" ry="16.67"/>
		<g class="st30">
			<path class="st11" d="M600.63,193.02c4.4,15.67,6,31.97,7.21,48.16c1.66,27,0.68,54.13-2.01,80.99c-3.16,32.16-9,64.2-17.1,95.48
				c-2.9,10.4-5.93,20.76-9.44,30.99c0.52-10.84,1.55-21.54,2.67-32.22C589.1,342.04,599.38,267.85,600.63,193.02L600.63,193.02z"/>
		</g>
		<g>
			<path class="st3" d="M471.89,370.54c-0.72,0.49-1.16,1.25-1.62,1.97c-1.36,2.19-2.5,4.52-3.61,6.85
				c-4.42,9.31-8.22,18.93-11.46,28.69c-4.26,13.08-7.56,26.39-7.48,40.28c-4.65-20.3,2.68-42.82,11.9-60.88
				c2.46-4.65,5.16-9.19,8.44-13.32C469.21,372.84,470.27,371.25,471.89,370.54L471.89,370.54z"/>
		</g>
		<path class="st31" d="M535.42,102.13c-69.49,44.3-69.49,119.16-69.49,119.16c0,5.22,0,15.97,0,36.62
			c0,57.34,21.18,183.51,22.86,193.46c0.05,0.29,0.08,0.58,0.11,0.87c0.12,1.08,1.45,5.52,15.36,8.59
			c-0.11-0.29-0.15-0.52-0.17-0.68c-0.03-0.29-0.06-0.58-0.11-0.87c-1.68-9.94-22.86-136.11-22.86-193.46
			c0-20.65-0.44-35.02-0.44-35.02C491.54,121,535.42,102.13,535.42,102.13z"/>
		<g>
			<path class="st3" d="M538.5,100.4c-15.22,13.16-25.67,30.72-34.32,48.64c-0.88,2.02-3.15,7.2-4.04,9.14
				c-1.43,3.62-2.84,7.27-4.33,10.88c-0.37,1.06-1.29,3.67-1.67,4.75c-2.46,6.36-4.35,12.79-6.87,19.21
				c0.21-4.57,0.63-9.14,1.18-13.69c0.67-3.83,1.5-8,2.29-11.83c1.88-7.32,4.21-14.32,7.13-21.3
				C506.14,127.96,519.49,108.47,538.5,100.4L538.5,100.4z"/>
		</g>
		<g class="st32">
			<path class="st33" d="M540.55,373.77c-2.61,1.02-2.74,3.93-3.26,6.34c-0.46,2.52-0.8,5.73-1.73,8.18
				c-1.91-4.05-2.13-9.27,0.58-13.04C537.09,374.01,539.04,372.88,540.55,373.77L540.55,373.77z"/>
		</g>
		
			<ellipse transform="matrix(0.6072 -0.7945 0.7945 0.6072 -30.3856 561.6906)" class="st3" cx="552.92" cy="311.58" rx="5.04" ry="4.07"/>
		<circle class="st3" cx="560.09" cy="308.05" r="2.31"/>
		<circle class="st3" cx="560.09" cy="299" r="5.01"/>
	</g>
	<g>
		<path d="M215.93,647.19v-79.92h48.98v8.91h-29.4v26.64h19.66v8.82H235.5v26.64h29.4v8.91H215.93z"/>
		<path d="M291.62,647.19v-79.92h4.46l54.35,44.37v-44.37h9.83v79.92h-4.5l-54.3-44.37v44.37H291.62z"/>
		<path d="M416.29,602.82h29.4v26.64c0,5.88-2.09,10.31-6.27,13.28c-4.18,2.97-8.61,4.45-13.3,4.45h-19.66
			c-5.36,0-9.96-1.74-13.81-5.22c-3.84-3.48-5.77-7.65-5.77-12.51V585c0-4.77,1.89-8.92,5.67-12.45c3.78-3.52,8.41-5.29,13.9-5.29
			h19.66c12.31,0,18.84,5.91,19.57,17.73h-9.83c-0.77-5.88-4.01-8.82-9.74-8.82h-9.83c-2.7,0-5.01,0.87-6.94,2.6
			s-2.89,3.81-2.89,6.22v44.45c0,2.44,0.96,4.52,2.89,6.24c1.93,1.72,4.24,2.58,6.94,2.58c6.25-0.28,9.52-3.22,9.83-8.82v-17.81
			h-9.83V602.82z"/>
		<path d="M472.33,647.19v-79.92h48.98v8.91h-29.4v26.64h19.66v8.82H491.9v35.55H472.33z"/>
		<path d="M548.02,647.19v-79.92h39.23c5.36,0,9.96,1.75,13.81,5.24c3.84,3.5,5.77,7.66,5.77,12.49v4.83c0,3.97-1.5,7.79-4.5,11.47
			c-3,3.68-8.02,5.52-15.07,5.52H597c2.7,0,5.01,0.87,6.94,2.62s2.89,3.84,2.89,6.29v31.47h-19.57v-26.64
			c0-2.44-0.97-4.54-2.92-6.29c-1.95-1.75-4.25-2.62-6.91-2.62h-9.83v35.55H548.02z M567.59,602.82h9.83c2.66,0,4.97-0.88,6.91-2.64
			c1.94-1.76,2.92-3.85,2.92-6.26V585c0-2.41-0.97-4.49-2.92-6.22c-1.95-1.73-4.25-2.6-6.91-2.6h-9.83V602.82z"/>
		<path d="M653.03,567.27h19.66c5.36,0,9.96,1.75,13.81,5.24c3.84,3.5,5.77,7.66,5.77,12.49v44.45c0,4.8-1.92,8.96-5.77,12.47
			c-3.84,3.51-8.45,5.27-13.81,5.27h-19.66c-5.36,0-9.96-1.74-13.81-5.22s-5.77-7.65-5.77-12.51V585c0-4.86,1.92-9.03,5.77-12.51
			S647.67,567.27,653.03,567.27z M653.03,585v44.45c0,2.39,0.96,4.45,2.87,6.2s4.23,2.62,6.96,2.62c2.73,0,5.05-0.87,6.96-2.62
			s2.87-3.82,2.87-6.2V585c0-2.41-0.97-4.49-2.92-6.22c-1.95-1.73-4.25-2.6-6.91-2.6c-2.7,0-5.01,0.87-6.94,2.6
			S653.03,582.59,653.03,585z"/>
		<path d="M767.86,585h-9.74c-0.86-5.94-3.95-8.91-9.28-8.91c-3.43,0-6.02,0.75-7.76,2.25c-1.75,1.5-2.62,3.73-2.62,6.7
			c0,2.22,0.96,4.3,2.89,6.24l20.77,21.14c3.83,3.88,5.74,8.06,5.74,12.53v4.5c0,4.8-1.91,8.96-5.74,12.47
			c-3.83,3.51-8.44,5.27-13.83,5.27h-9.83c-6.49,0-11.38-1.48-14.66-4.45c-3.28-2.97-4.92-7.39-4.92-13.28h9.83
			c-0.06,0.61-0.09,1.1-0.09,1.46c0,2.41,1.03,4.25,3.08,5.49s4.3,1.87,6.75,1.87c3.49,0,6-0.76,7.54-2.29
			c1.53-1.53,2.3-3.75,2.3-6.66c0-2.25-0.96-4.33-2.89-6.24l-20.77-21.06c-3.83-3.86-5.74-8.03-5.74-12.53V585
			c0-4.83,1.91-8.99,5.74-12.49s8.44-5.24,13.83-5.24h9.83C760.54,567.27,767.07,573.18,767.86,585z"/>
		<path d="M794.58,647.19v-79.92h19.57v35.55h19.66v-35.55h19.57v79.92h-19.57v-35.55h-19.66v35.55H794.58z"/>
	</g>
	<rect x="213.71" y="658.33" width="645.21" height="4.38"/>
	<g>
		<path d="M213.03,716.26v-40.68h18.74c2.56,0,4.76,0.89,6.6,2.67c1.84,1.78,2.75,3.9,2.75,6.36v22.63c0,2.44-0.92,4.56-2.75,6.35
			c-1.84,1.79-4.04,2.68-6.6,2.68H213.03z M222.38,711.72h4.7c1.3,0,2.41-0.44,3.33-1.33c0.91-0.89,1.37-1.94,1.37-3.16V684.6
			c0-1.23-0.46-2.28-1.39-3.17s-2.03-1.32-3.3-1.32h-4.7V711.72z"/>
		<path d="M257.5,716.26v-40.68h23.4v4.53h-14.05v13.56h9.39v4.49h-9.39v13.56h14.05v4.53H257.5z"/>
		<path d="M320.72,684.6h-4.65c-0.41-3.02-1.89-4.53-4.43-4.53c-1.64,0-2.88,0.38-3.71,1.14s-1.25,1.9-1.25,3.41
			c0,1.13,0.46,2.19,1.38,3.18l9.92,10.76c1.83,1.98,2.74,4.1,2.74,6.38v2.29c0,2.44-0.91,4.56-2.74,6.35
			c-1.83,1.79-4.03,2.68-6.61,2.68h-4.7c-3.1,0-5.44-0.76-7-2.27c-1.57-1.51-2.35-3.76-2.35-6.76h4.7
			c-0.03,0.31-0.04,0.56-0.04,0.74c0,1.23,0.49,2.16,1.47,2.8c0.98,0.64,2.06,0.95,3.23,0.95c1.67,0,2.87-0.39,3.6-1.17
			c0.73-0.78,1.1-1.91,1.1-3.39c0-1.14-0.46-2.2-1.38-3.18l-9.92-10.72c-1.83-1.96-2.74-4.09-2.74-6.38v-2.29
			c0-2.46,0.91-4.58,2.74-6.36c1.83-1.78,4.03-2.67,6.61-2.67h4.7C317.22,675.58,320.34,678.59,320.72,684.6z"/>
		<path d="M341.79,716.26v-36.14h-9.35v-4.53h28.1v4.53h-9.35v36.14H341.79z"/>
		<path d="M376.91,716.26v-40.68h9.37v40.68H376.91z"/>
		<path d="M407.37,716.26v-40.68h2.13l25.97,22.58v-22.58h4.7v40.68h-2.15l-25.94-22.58v22.58H407.37z"/>
		<path d="M456.54,716.26V684.6c0-2.47,0.92-4.59,2.75-6.37s4.04-2.66,6.6-2.66h9.39c2.56,0,4.76,0.89,6.6,2.67
			c1.84,1.78,2.75,3.9,2.75,6.36v31.65h-9.35v-18.09h-9.39v18.09H456.54z M465.89,693.67h9.39v-9.07c0-1.23-0.46-2.28-1.39-3.17
			s-2.03-1.32-3.3-1.32c-1.29,0-2.39,0.44-3.31,1.32s-1.38,1.94-1.38,3.17V693.67z"/>
		<path d="M505.66,716.26v-36.14h-9.35v-4.53h28.1v4.53h-9.35v36.14H505.66z"/>
		<path d="M540.78,716.26v-40.68h9.37v40.68H540.78z"/>
		<path d="M580.6,675.58h9.39c2.56,0,4.76,0.89,6.6,2.67c1.84,1.78,2.75,3.9,2.75,6.36v22.63c0,2.44-0.92,4.56-2.75,6.35
			c-1.84,1.79-4.04,2.68-6.6,2.68h-9.39c-2.56,0-4.76-0.89-6.6-2.66c-1.84-1.77-2.75-3.89-2.75-6.37V684.6
			c0-2.47,0.92-4.59,2.75-6.37C575.84,676.46,578.04,675.58,580.6,675.58z M580.6,684.6v22.63c0,1.21,0.46,2.27,1.37,3.16
			c0.91,0.89,2.02,1.33,3.33,1.33c1.3,0,2.41-0.44,3.33-1.33c0.91-0.89,1.37-1.94,1.37-3.16V684.6c0-1.23-0.46-2.28-1.39-3.17
			c-0.93-0.88-2.03-1.32-3.3-1.32c-1.29,0-2.39,0.44-3.31,1.32S580.6,683.38,580.6,684.6z"/>
		<path d="M615.72,716.26v-40.68h2.13l25.97,22.58v-22.58h4.7v40.68h-2.15l-25.94-22.58v22.58H615.72z"/>
		<path d="M685.63,716.26v-40.68h2.13l20.02,19.28l20-19.28h4.7v40.68h-9.39v-24.87l-16.44,15.87l-16.31-15.87v24.87H685.63z"/>
		<path d="M748.84,716.26V684.6c0-2.47,0.92-4.59,2.75-6.37c1.84-1.77,4.04-2.66,6.6-2.66h9.39c2.56,0,4.76,0.89,6.6,2.67
			c1.84,1.78,2.75,3.9,2.75,6.36v31.65h-9.35v-18.09h-9.39v18.09H748.84z M758.19,693.67h9.39v-9.07c0-1.23-0.46-2.28-1.39-3.17
			c-0.93-0.88-2.03-1.32-3.3-1.32c-1.29,0-2.39,0.44-3.31,1.32s-1.38,1.94-1.38,3.17V693.67z"/>
		<path d="M793.31,716.26v-40.68h18.75c2.56,0,4.76,0.89,6.6,2.67c1.84,1.78,2.75,3.9,2.75,6.36v2.46c0,2.02-0.72,3.97-2.15,5.84
			c-1.43,1.87-3.83,2.81-7.2,2.81h4.65c1.29,0,2.39,0.45,3.31,1.33s1.38,1.96,1.38,3.2v16.02h-9.35V702.7c0-1.24-0.46-2.31-1.39-3.2
			c-0.93-0.89-2.03-1.33-3.3-1.33h-4.7v18.09H793.31z M802.66,693.67h4.7c1.27,0,2.37-0.45,3.3-1.35c0.93-0.9,1.39-1.96,1.39-3.19
			v-4.53c0-1.23-0.46-2.28-1.39-3.17c-0.93-0.88-2.03-1.32-3.3-1.32h-4.7V693.67z"/>
		<path d="M861.18,684.6h-4.65c-0.41-3.02-1.89-4.53-4.43-4.53c-1.64,0-2.88,0.38-3.71,1.14s-1.25,1.9-1.25,3.41
			c0,1.13,0.46,2.19,1.38,3.18l9.92,10.76c1.83,1.98,2.74,4.1,2.74,6.38v2.29c0,2.44-0.92,4.56-2.74,6.35
			c-1.83,1.79-4.03,2.68-6.61,2.68h-4.7c-3.1,0-5.44-0.76-7-2.27c-1.57-1.51-2.35-3.76-2.35-6.76h4.7
			c-0.03,0.31-0.04,0.56-0.04,0.74c0,1.23,0.49,2.16,1.47,2.8s2.06,0.95,3.23,0.95c1.67,0,2.87-0.39,3.6-1.17
			c0.73-0.78,1.1-1.91,1.1-3.39c0-1.14-0.46-2.2-1.38-3.18l-9.92-10.72c-1.83-1.96-2.74-4.09-2.74-6.38v-2.29
			c0-2.46,0.91-4.58,2.74-6.36s4.03-2.67,6.61-2.67h4.7C857.68,675.58,860.8,678.59,861.18,684.6z"/>
	</g>
</g>
</svg>
