<?xml version="1.0" encoding="UTF-8" standalone="no"?>
<!-- Generator: Adobe Illustrator 26.3.1, SVG Export Plug-In . SVG Version: 6.00 Build 0)  -->

<svg
   version="1.1"
   x="0px"
   y="0px"
   viewBox="0 0 2143.75 1205.86"
   xml:space="preserve"
   id="svg492"
   sodipodi:docname="EngFrosh-Color-Long.svg"
   width="2143.75"
   height="1205.86"
   inkscape:version="1.1.2 (b8e25be833, 2022-02-05)"
   xmlns:inkscape="http://www.inkscape.org/namespaces/inkscape"
   xmlns:sodipodi="http://sodipodi.sourceforge.net/DTD/sodipodi-0.dtd"
   xmlns="http://www.w3.org/2000/svg"
   xmlns:svg="http://www.w3.org/2000/svg"><defs
   id="defs496" /><sodipodi:namedview
   id="namedview494"
   pagecolor="#ffffff"
   bordercolor="#666666"
   borderopacity="1.0"
   inkscape:pageshadow="2"
   inkscape:pageopacity="0.0"
   inkscape:pagecheckerboard="0"
   showgrid="false"
   inkscape:zoom="0.51417"
   inkscape:cx="1066.7678"
   inkscape:cy="600.96855"
   inkscape:window-width="2560"
   inkscape:window-height="1387"
   inkscape:window-x="-8"
   inkscape:window-y="-8"
   inkscape:window-maximized="1"
   inkscape:current-layer="svg492" />
<style
   type="text/css"
   id="style2">
	.st0{fill:url(#SVGID_1_);}
	.st1{fill:#FFFFFF;}
	.st2{fill:#160723;}
	.st3{fill:url(#SVGID_00000099648352123178265360000008861362696872739215_);}
	.st4{opacity:0.43;fill:#59050B;}
	.st5{opacity:0.49;fill:#821611;}
	.st6{opacity:0.6;fill:#F7931E;}
	.st7{opacity:0.6;fill:#FDCD4D;}
	.st8{opacity:0.35;}
	.st9{fill:#26092D;}
	.st10{fill:url(#SVGID_00000121252042471397928600000001816306158573916855_);}
	.st11{opacity:0.54;}
	.st12{fill:url(#SVGID_00000142170177854167652110000011737690180358647452_);}
	.st13{fill:#FFFFFF;stroke:#FFFFFF;stroke-miterlimit:10;}
	.st14{fill:#C2C2C2;}
	.st15{fill:#A0A0A0;}
	.st16{fill:#E6E6E6;}
	.st17{fill:none;stroke:#FFFFFF;stroke-linecap:round;stroke-linejoin:round;stroke-miterlimit:10;}
	.st18{fill:#5D0084;}
	.st19{fill:url(#SVGID_00000133516863737003021260000007247432447568149924_);}
	.st20{opacity:0.91;}
	.st21{fill:#140021;}
	.st22{fill:#B100FF;}
	.st23{opacity:0.36;fill:#140021;}
	.st24{fill:#80D5FF;stroke:#26092D;stroke-width:3;stroke-miterlimit:10;}
	.st25{fill:url(#SVGID_00000015353783687030468760000002840064438482517934_);}
	.st26{opacity:0.91;fill:#140021;}
	.st27{fill:#B3E6FF;}
	.st28{opacity:0.3;}
	.st29{opacity:0.65;fill:#E460FC;}
	.st30{opacity:0.65;}
	.st31{fill:#E460FC;}
</style>
<g
   id="Layer_10"
   transform="translate(-3.21,-4.2399998)">
	<linearGradient
   id="SVGID_1_"
   gradientUnits="userSpaceOnUse"
   x1="374.8367"
   y1="-18.6049"
   x2="1903.1393"
   y2="1347.1499">
		<stop
   offset="0"
   style="stop-color:#2E033B"
   id="stop4" />
		<stop
   offset="0.0816"
   style="stop-color:#3C0E4B"
   id="stop6" />
		<stop
   offset="0.1784"
   style="stop-color:#461657"
   id="stop8" />
		<stop
   offset="0.2765"
   style="stop-color:#49195B"
   id="stop10" />
		<stop
   offset="0.2981"
   style="stop-color:#4C185C"
   id="stop12" />
		<stop
   offset="0.4213"
   style="stop-color:#5A1361"
   id="stop14" />
		<stop
   offset="0.5279"
   style="stop-color:#5F1163"
   id="stop16" />
		<stop
   offset="0.5845"
   style="stop-color:#500D57"
   id="stop18" />
		<stop
   offset="0.6799"
   style="stop-color:#3D0747"
   id="stop20" />
		<stop
   offset="0.7781"
   style="stop-color:#32043E"
   id="stop22" />
		<stop
   offset="0.8827"
   style="stop-color:#2E033B"
   id="stop24" />
	</linearGradient>
	<rect
   x="3.21"
   y="4.2399998"
   class="st0"
   width="2143.75"
   height="1205.86"
   id="rect27"
   style="fill:url(#SVGID_1_)" />
	<polygon
   class="st1"
   points="755.29,122.21 749.14,127.43 750.59,134.81 743,131.33 735.4,134.81 736.85,127.43 730.7,122.21 739.2,121.13 743,114.42 746.8,121.13 "
   id="polygon29" />
	<polygon
   class="st1"
   points="849.6,388.08 844.66,392.89 845.82,399.69 839.72,396.48 833.61,399.69 834.78,392.89 829.84,388.08 836.67,387.09 839.72,380.9 842.77,387.09 "
   id="polygon31" />
	<polygon
   class="st1"
   points="1572.45,471.27 1564.26,479.46 1566.19,491.02 1556.06,485.56 1545.93,491.02 1547.87,479.46 1539.67,471.27 1551,469.59 1556.06,459.07 1561.13,469.59 "
   id="polygon33" />
	<polygon
   class="st1"
   points="855.41,1038.36 851.49,1041.7 852.41,1046.41 847.56,1044.18 842.71,1046.41 843.64,1041.7 839.72,1038.36 845.14,1037.68 847.56,1033.39 849.99,1037.68 "
   id="polygon35" />
	<polygon
   class="st1"
   points="575.09,143.97 571.17,147.3 572.1,152.01 567.25,149.79 562.4,152.01 563.32,147.3 559.4,143.97 564.82,143.28 567.25,138.99 569.67,143.28 "
   id="polygon37" />
	<polygon
   class="st1"
   points="542.16,834.82 538.24,838.15 539.17,842.86 534.32,840.64 529.47,842.86 530.4,838.15 526.47,834.82 531.89,834.13 534.32,829.85 536.74,834.13 "
   id="polygon39" />
	<polygon
   class="st1"
   points="1426.58,457.92 1421.19,462.5 1422.46,468.97 1415.8,465.91 1409.14,468.97 1410.41,462.5 1405.02,457.92 1412.47,456.97 1415.8,451.08 1419.13,456.97 "
   id="polygon41" />
	<polygon
   class="st1"
   points="944.54,238.43 938.35,244.47 939.81,252.99 932.16,248.97 924.5,252.99 925.96,244.47 919.77,238.43 928.33,237.19 932.16,229.43 935.99,237.19 "
   id="polygon43" />
	<polygon
   class="st1"
   points="804.63,578.36 796.19,585.54 798.18,595.68 787.74,590.89 777.3,595.68 779.29,585.54 770.85,578.36 782.52,576.88 787.74,567.66 792.96,576.88 "
   id="polygon45" />
	<polygon
   class="st1"
   points="1665.98,623.32 1662.06,626.66 1662.98,631.36 1658.14,629.14 1653.29,631.36 1654.21,626.66 1650.29,623.32 1655.71,622.63 1658.14,618.35 1660.56,622.63 "
   id="polygon47" />
	<path
   class="st1"
   d="m 1492.45,168.91 5.17,-4.36 -6.4,-2.19 -2.3,-7.14 -3.05,5.34 c -3.87,-1.57 -8.54,-3.26 -13.09,-4.39 -10.72,-2.68 -20.87,0.91 -20.87,0.91 0,0 21.59,3.2 31.01,10.77 l -1.63,6.55 6.12,-2.44 5.5,4.45 z"
   id="path49" />
	<polygon
   class="st1"
   points="298.74,861.7 290.54,869.89 292.48,881.45 282.35,875.99 272.22,881.45 274.15,869.89 265.96,861.7 277.28,860.02 282.35,849.5 287.41,860.02 "
   id="polygon51" />
	<polygon
   class="st1"
   points="605.49,644.23 601.57,647.56 602.49,652.27 597.65,650.05 592.8,652.27 593.72,647.56 589.8,644.23 595.22,643.54 597.65,639.25 600.07,643.54 "
   id="polygon53" />
	<polygon
   class="st1"
   points="1168.39,547.18 1164.47,550.51 1165.39,555.22 1160.55,553 1155.7,555.22 1156.62,550.51 1152.7,547.18 1158.12,546.49 1160.55,542.21 1162.97,546.49 "
   id="polygon55" />
	<polygon
   class="st1"
   points="2035.06,1119.62 2028.91,1124.84 2030.36,1132.22 2022.77,1128.74 2015.17,1132.22 2016.62,1124.84 2010.47,1119.62 2018.97,1118.54 2022.77,1111.83 2026.56,1118.54 "
   id="polygon57" />
	<polygon
   class="st1"
   points="2022.77,968.2 2017.83,973.01 2018.99,979.81 2012.89,976.6 2006.78,979.81 2007.95,973.01 2003.01,968.2 2009.84,967.21 2012.89,961.02 2015.94,967.21 "
   id="polygon59" />
	<polygon
   class="st1"
   points="557.86,1103.79 553.93,1107.12 554.86,1111.83 550.01,1109.61 545.16,1111.83 546.09,1107.12 542.16,1103.79 547.59,1103.1 550.01,1098.81 552.43,1103.1 "
   id="polygon61" />
	<polygon
   class="st1"
   points="1782.8,1018.83 1776.61,1024.87 1778.07,1033.39 1770.42,1029.37 1762.76,1033.39 1764.22,1024.87 1758.03,1018.83 1766.59,1017.59 1770.42,1009.83 1774.25,1017.59 "
   id="polygon63" />
	<path
   class="st1"
   d="m 506.59,384.47 0.47,-13.97 -12.21,6.79 -14.15,-6.36 3.97,12.07 c -7.76,3.77 -16.82,8.59 -24.87,14 -18.95,12.73 -27.51,33.29 -27.51,33.29 0,0 34.81,-28.7 59.46,-32.67 l 7.79,11.58 4.72,-12.78 14.44,-2.27 z"
   id="path65" />
	<polygon
   class="st1"
   points="2042.9,607.77 2038.98,611.11 2039.91,615.82 2035.06,613.59 2030.21,615.82 2031.14,611.11 2027.21,607.77 2032.63,607.09 2035.06,602.8 2037.48,607.09 "
   id="polygon67" />
	<polygon
   class="st1"
   points="1980.86,388.76 1976.94,392.09 1977.87,396.8 1973.02,394.58 1968.17,396.8 1969.1,392.09 1965.17,388.76 1970.59,388.07 1973.02,383.79 1975.44,388.07 "
   id="polygon69" />
	<polygon
   class="st1"
   points="1889.69,122.15 1883.5,128.18 1884.96,136.71 1877.3,132.68 1869.65,136.71 1871.11,128.18 1864.92,122.15 1873.48,120.9 1877.3,113.15 1881.13,120.9 "
   id="polygon71" />
	<polygon
   class="st1"
   points="1230.78,1128.92 1222.33,1136.1 1224.33,1146.23 1213.89,1141.45 1203.45,1146.23 1205.44,1136.1 1197,1128.92 1208.67,1127.44 1213.89,1118.21 1219.11,1127.44 "
   id="polygon73" />
	<polygon
   class="st1"
   points="1839.91,457.53 1835.98,460.87 1836.91,465.58 1832.06,463.35 1827.21,465.58 1828.14,460.87 1824.21,457.53 1829.64,456.84 1832.06,452.56 1834.48,456.84 "
   id="polygon75" />
	<polygon
   class="st1"
   points="149.55,293.43 141.35,301.62 143.29,313.18 133.16,307.72 123.03,313.18 124.96,301.62 116.77,293.43 128.09,291.74 133.16,281.22 138.22,291.74 "
   id="polygon77" />
	<polygon
   class="st1"
   points="157.4,496.81 153.47,500.14 154.4,504.85 149.55,502.63 144.7,504.85 145.63,500.14 141.7,496.81 147.13,496.12 149.55,491.83 151.97,496.12 "
   id="polygon79" />
	<polygon
   class="st1"
   points="638.03,474.75 634.11,478.08 635.04,482.79 630.19,480.57 625.34,482.79 626.27,478.08 622.34,474.75 627.76,474.06 630.19,469.78 632.61,474.06 "
   id="polygon81" />
	<polygon
   class="st1"
   points="374.5,538.9 366.05,546.08 368.04,556.22 357.6,551.43 347.16,556.22 349.16,546.08 340.71,538.9 352.38,537.42 357.6,528.2 362.82,537.42 "
   id="polygon83" />
	<polygon
   class="st1"
   points="331.32,331.02 327.4,334.35 328.32,339.06 323.48,336.84 318.63,339.06 319.55,334.35 315.63,331.02 321.05,330.33 323.48,326.04 325.9,330.33 "
   id="polygon85" />
	<polygon
   class="st1"
   points="182.33,990.46 174.14,998.65 176.07,1010.21 165.94,1004.75 155.81,1010.21 157.75,998.65 149.55,990.46 160.88,988.78 165.94,978.26 171.01,988.78 "
   id="polygon87" />
	<polygon
   class="st1"
   points="373.29,999.8 369.37,1003.14 370.3,1007.85 365.45,1005.62 360.6,1007.85 361.53,1003.14 357.6,999.8 363.02,999.12 365.45,994.83 367.87,999.12 "
   id="polygon89" />
	<polygon
   class="st1"
   points="732.03,962.85 728.11,966.19 729.04,970.9 724.19,968.67 719.34,970.9 720.26,966.19 716.34,962.85 721.76,962.17 724.19,957.88 726.61,962.17 "
   id="polygon91" />
	<polygon
   class="st1"
   points="688.75,802.89 680.3,810.07 682.29,820.21 671.85,815.42 661.41,820.21 663.41,810.07 654.96,802.89 666.63,801.41 671.85,792.19 677.07,801.41 "
   id="polygon93" />
	<polygon
   class="st1"
   points="190.32,759.16 186.4,762.49 187.33,767.2 182.48,764.98 177.63,767.2 178.55,762.49 174.63,759.16 180.05,758.47 182.48,754.19 184.9,758.47 "
   id="polygon95" />
	<polygon
   class="st1"
   points="330.66,78.3 324.51,83.52 325.96,90.9 318.37,87.42 310.77,90.9 312.22,83.52 306.07,78.3 314.57,77.22 318.37,70.51 322.16,77.22 "
   id="polygon97" />
	<polygon
   class="st1"
   points="391.4,219.52 386.46,224.34 387.62,231.13 381.52,227.93 375.41,231.13 376.58,224.34 371.64,219.52 378.47,218.53 381.52,212.35 384.57,218.53 "
   id="polygon99" />
	<polygon
   class="st1"
   points="289.34,137.46 285.42,140.79 286.34,145.5 281.49,143.28 276.64,145.5 277.57,140.79 273.65,137.46 279.07,136.77 281.49,132.49 283.92,136.77 "
   id="polygon101" />
	<polygon
   class="st1"
   points="1635.68,262.34 1627.23,269.52 1629.22,279.66 1618.78,274.88 1608.34,279.66 1610.34,269.52 1601.89,262.34 1613.56,260.86 1618.78,251.64 1624,260.86 "
   id="polygon103" />
	<polygon
   class="st1"
   points="1423.65,295.66 1419.72,299 1420.65,303.71 1415.8,301.48 1410.95,303.71 1411.88,299 1407.96,295.66 1413.38,294.98 1415.8,290.69 1418.23,294.98 "
   id="polygon105" />
	<polygon
   class="st1"
   points="1550.45,992.12 1545.06,996.71 1546.33,1003.18 1539.67,1000.12 1533.01,1003.18 1534.28,996.71 1528.89,992.12 1536.34,991.18 1539.67,985.29 1543,991.18 "
   id="polygon107" />
	<polygon
   class="st1"
   points="710.61,297.23 698.81,309.02 701.6,325.66 687.02,317.8 672.43,325.66 675.22,309.02 663.42,297.23 679.73,294.8 687.02,279.66 694.31,294.8 "
   id="polygon109" />
	<polygon
   class="st1"
   points="1262.8,202.63 1254.6,210.82 1256.54,222.38 1246.41,216.92 1236.28,222.38 1238.21,210.82 1230.02,202.63 1241.34,200.94 1246.41,190.43 1251.47,200.94 "
   id="polygon111" />
	<polygon
   class="st1"
   points="1207.72,60.81 1203.8,64.14 1204.72,68.85 1199.87,66.63 1195.02,68.85 1195.95,64.14 1192.03,60.81 1197.45,60.12 1199.87,55.84 1202.3,60.12 "
   id="polygon113" />
	<polygon
   class="st1"
   points="1572.45,766.01 1564.26,774.2 1566.19,785.76 1556.06,780.3 1545.93,785.76 1547.87,774.2 1539.67,766.01 1551,764.32 1556.06,753.8 1561.13,764.32 "
   id="polygon115" />
	<polygon
   class="st1"
   points="1643.52,863.94 1639.6,867.27 1640.52,871.98 1635.68,869.76 1630.83,871.98 1631.75,867.27 1627.83,863.94 1633.25,863.25 1635.68,858.97 1638.1,863.25 "
   id="polygon117" />
	<polygon
   class="st1"
   points="1869.09,643.35 1862.94,648.58 1864.4,655.96 1856.8,652.47 1849.2,655.96 1850.65,648.58 1844.5,643.35 1853,642.28 1856.8,635.56 1860.6,642.28 "
   id="polygon119" />
	<polygon
   class="st1"
   points="1767.91,716.76 1762.97,721.57 1764.14,728.37 1758.03,725.16 1751.93,728.37 1753.09,721.57 1748.15,716.76 1754.98,715.76 1758.03,709.58 1761.08,715.76 "
   id="polygon121" />
	<polygon
   class="st1"
   points="1102.17,1038.36 1098.24,1041.7 1099.17,1046.41 1094.32,1044.18 1089.47,1046.41 1090.4,1041.7 1086.47,1038.36 1091.9,1037.68 1094.32,1033.39 1096.74,1037.68 "
   id="polygon123" />
</g>
<g
   id="Layer_8"
   transform="translate(-3.21,-4.2399998)">
	<path
   d="m 1366.78,845.09 c 0.31,-1.13 0.48,-2.31 0.48,-3.53 0,-7.44 -6.03,-13.47 -13.47,-13.47 -1.89,0 -3.69,0.39 -5.32,1.09 -6.45,-9.48 -17.33,-15.71 -29.66,-15.71 -16.42,0 -30.25,11.04 -34.49,26.1 -3.57,-2.27 -7.8,-3.59 -12.34,-3.59 -1.85,0 -3.65,0.22 -5.37,0.64 -1.39,-0.54 -2.83,-0.98 -4.31,-1.3 0.45,-1.68 0.7,-3.44 0.7,-5.26 0,-11.08 -8.98,-20.05 -20.05,-20.05 -2.81,0 -5.49,0.58 -7.92,1.63 -9.6,-14.12 -25.79,-23.39 -44.15,-23.39 -17.38,0 -32.81,8.31 -42.56,21.17 -1.29,-0.26 -2.62,-0.4 -3.99,-0.4 -2.81,0 -5.49,0.58 -7.92,1.63 -9.6,-14.12 -25.79,-23.39 -44.15,-23.39 -16.89,0 -31.93,7.85 -41.71,20.09 -1.59,-0.41 -3.26,-0.62 -4.98,-0.62 -2.81,0 -5.49,0.58 -7.92,1.63 -9.6,-14.12 -25.79,-23.39 -44.15,-23.39 -24.44,0 -45.02,16.43 -51.35,38.85 -5.31,-3.38 -11.61,-5.35 -18.37,-5.35 -9.67,0 -18.39,4.01 -24.62,10.44 -1.48,0.12 -2.9,0.48 -4.21,1.04 -6.45,-9.48 -17.33,-15.71 -29.66,-15.71 -16.42,0 -30.25,11.04 -34.49,26.1 -3.57,-2.27 -7.8,-3.59 -12.34,-3.59 -12.72,0 -23.03,10.31 -23.03,23.03 0,12.72 10.31,23.03 23.03,23.03 1.09,0 2.16,-0.08 3.22,-0.23 1.39,5.92 6.7,10.33 13.04,10.33 2.59,0 5.01,-0.75 7.06,-2.02 1.39,3.43 4.74,5.85 8.67,5.85 2.93,0 5.54,-1.35 7.26,-3.45 3.21,4.87 8.73,8.09 15.01,8.09 8.56,0 15.72,-5.99 17.53,-14.01 0.15,0.01 0.29,0.02 0.44,0.02 4.49,0 8.31,-2.85 9.77,-6.83 2,1.09 4.23,1.81 6.59,2.11 4.95,2.78 10.67,4.38 16.75,4.38 1.62,0 3.21,-0.12 4.77,-0.34 2.07,8.81 9.98,15.37 19.43,15.37 3.86,0 7.46,-1.1 10.51,-2.99 2.07,5.1 7.06,8.7 12.9,8.7 4.36,0 8.25,-2 10.8,-5.14 4.79,7.25 13,12.04 22.34,12.04 12.12,0 22.36,-8.07 25.64,-19.13 3.59,5.32 9.67,8.82 16.57,8.82 3.86,0 7.46,-1.1 10.51,-2.99 2.07,5.1 7.06,8.7 12.9,8.7 4.36,0 8.25,-2 10.8,-5.14 4.79,7.25 13,12.04 22.34,12.04 12.41,0 22.84,-8.45 25.87,-19.91 3.63,5.03 9.53,8.3 16.2,8.3 3.86,0 7.46,-1.1 10.51,-2.99 2.07,5.1 7.06,8.7 12.9,8.7 4.36,0 8.25,-2 10.8,-5.14 4.79,7.25 13,12.04 22.34,12.04 12.75,0 23.41,-8.92 26.09,-20.86 0.22,0.01 0.44,0.03 0.66,0.03 6.69,0 12.37,-4.24 14.55,-10.17 3.94,2.14 8.45,3.36 13.25,3.36 7.35,0 14.03,-2.86 19,-7.52 1.72,5.43 6.79,9.36 12.79,9.36 2.59,0 5.01,-0.75 7.06,-2.02 1.39,3.43 4.74,5.85 8.67,5.85 2.93,0 5.54,-1.35 7.26,-3.45 3.21,4.87 8.73,8.09 15.01,8.09 8.56,0 15.72,-5.99 17.53,-14.01 0.15,0.01 0.29,0.02 0.44,0.02 4.49,0 8.31,-2.85 9.77,-6.83 2.65,1.44 5.68,2.25 8.9,2.25 10.31,0 18.67,-8.36 18.67,-18.67 -0.04,-9.04 -6.37,-16.54 -14.8,-18.33 z"
   id="path126" />
	<circle
   cx="927.02002"
   cy="802.94"
   r="5.7600002"
   id="circle128" />
	<circle
   cx="1267.63"
   cy="806.53003"
   r="4.6399999"
   id="circle130" />
	<polygon
   class="st1"
   points="1035.04,579.69 1029.07,585.66 1030.48,594.1 1023.09,590.11 1015.7,594.1 1017.11,585.66 1011.13,579.69 1019.39,578.46 1023.09,570.79 1026.78,578.46 "
   id="polygon132" />
	<polygon
   class="st1"
   points="1091.51,544.3 1085.35,549.54 1086.8,556.94 1079.19,553.45 1071.57,556.94 1073.03,549.54 1066.87,544.3 1075.38,543.23 1079.19,536.5 1083,543.23 "
   id="polygon134" />
	<circle
   class="st2"
   cx="1083.39"
   cy="536.62"
   r="248.78999"
   id="circle136" />
	
		<linearGradient
   id="SVGID_00000024717654899137872490000007723229865117566142_"
   gradientUnits="userSpaceOnUse"
   x1="803.51068"
   y1="301.75"
   x2="1159.1803"
   y2="592.98682">
		<stop
   offset="0.1513"
   style="stop-color:#F15A24"
   id="stop138" />
		<stop
   offset="0.5007"
   style="stop-color:#FBB03B"
   id="stop140" />
		<stop
   offset="0.5507"
   style="stop-color:#FAA738"
   id="stop142" />
		<stop
   offset="0.6338"
   style="stop-color:#F78D32"
   id="stop144" />
		<stop
   offset="0.7392"
   style="stop-color:#F26427"
   id="stop146" />
		<stop
   offset="0.7624"
   style="stop-color:#F15A24"
   id="stop148" />
	</linearGradient>
	<circle
   style="fill:url(#SVGID_00000024717654899137872490000007723229865117566142_)"
   cx="1078.91"
   cy="527.26001"
   r="248.78999"
   id="circle151" />
	<path
   class="st4"
   d="m 1318.65,478.09 c 23.14,30.18 7.41,174.13 -89.62,248.51 -97.03,74.38 -238.63,51.02 -261.77,20.84 -12.93,-16.87 37.39,-25.77 68.32,-65.4 24.41,-31.27 22.68,-91.12 65.48,-123.93 41.89,-32.11 86.64,-6.89 122.66,-22.42 47.44,-20.46 81.78,-74.76 94.93,-57.6 z"
   id="path153" />
	<path
   class="st5"
   d="m 1071.35,757.48 c -17.25,-20.75 72.4,-28.12 140.83,-85.01 68.43,-56.89 89.73,-141.75 106.98,-121 17.25,20.75 -11.19,109.49 -79.62,166.38 -68.43,56.89 -150.94,60.39 -168.19,39.63 z"
   id="path155" />
	<path
   class="st6"
   d="m 1233.84,374.85 c 0.58,-1.28 1.05,-2.59 1.37,-3.96 6.11,-26.28 -40.43,-59.57 -103.95,-74.34 -63.52,-14.77 -119.97,-5.44 -126.08,20.85 -6.11,26.29 40.43,59.57 103.95,74.34 1.43,0.33 2.85,0.65 4.27,0.96 8.44,15.5 33.8,30.93 65.86,38.39 42.32,9.84 80.29,2.06 84.8,-17.37 2.98,-12.84 -9.34,-27.53 -30.22,-38.87 z"
   id="path157" />
	<path
   class="st7"
   d="m 859.9,597.17 c -30.13,-23.2 -33.77,-136.03 30.08,-218.95 63.85,-82.92 171.01,-104.53 201.14,-81.33 30.13,23.2 2.8,109.23 -61.05,192.15 -63.85,82.92 -140.03,131.34 -170.17,108.13 z"
   id="path159" />
	
		<ellipse
   transform="matrix(0.6101,-0.7923,0.7923,0.6101,80.0403,891.4227)"
   class="st1"
   cx="945.76001"
   cy="364.39001"
   rx="46.419998"
   ry="25.65"
   id="ellipse161" />
	<ellipse
   transform="matrix(0.5,-0.866,0.866,0.5,89.9929,973.8464)"
   class="st1"
   cx="888.37"
   cy="408.98999"
   rx="25.709999"
   ry="11.01"
   id="ellipse163" />
	<ellipse
   transform="matrix(0.5,-0.866,0.866,0.5,93.7756,995.1458)"
   class="st1"
   cx="908.71002"
   cy="416.35999"
   rx="10.11"
   ry="3.95"
   id="ellipse165" />
	<g
   class="st8"
   id="g173">
		<g
   id="g171">
			<path
   class="st9"
   d="m 1208.13,558.72 c 1.83,-11.92 3.54,-25.39 3.54,-34.01 0,-4.99 0,-8.1 0,-9.98 0.08,-0.08 0.12,-0.12 0.12,-0.12 0,-0.07 0,-0.13 0,-0.19 0,0 0,-0.74 -0.14,-2.03 -0.15,-3.06 -1.66,-19.65 -17.53,-32.41 -1.16,-0.95 -2.41,-1.89 -3.73,-2.79 -0.93,-0.64 -2.1,-0.79 -3.14,-0.45 l 0.1,-0.18 c 0,0 -0.25,0.13 -0.69,0.43 -0.08,0.04 -0.16,0.09 -0.23,0.14 -0.96,0.61 -1.88,1.25 -2.76,1.9 0.11,-0.1 0.22,-0.19 0.33,-0.28 -1.72,1.25 -3.29,2.56 -4.71,3.92 -14.08,13.17 -14.08,30.24 -14.08,30.24 0,0.01 0,0.01 0,0.02 -0.02,0.38 -0.02,0.58 -0.02,0.58 0,1.6 0,4.88 0,11.19 0,8.57 1.55,22.16 3.19,34.18 -0.34,-0.3 -0.82,-0.19 -1.37,0.24 v 0 c -0.1,0.03 -0.26,0.17 -0.47,0.42 -3.2,3.22 -8.27,15.2 -6.92,23.35 1.84,11.07 7.43,23.06 10.14,16.49 2.73,-6.61 3.62,-8.85 3.1,-14.27 0.61,0.52 1.79,1.14 4.06,1.64 0.04,0.04 0.08,0.08 0.13,0.12 0.44,3.06 0.74,4.94 0.74,4.94 0,0 -0.22,2.73 8.67,3.08 0.02,0.67 0.03,1.12 0.03,1.27 0,1.53 0.3,3.37 1.59,3.37 1.29,0 1.62,-2.44 1.66,-3.51 0,-0.1 0.03,-0.49 0.06,-1.11 0.01,0 0.02,0 0.02,0 l 0.5,0.02 c 0,-0.01 0,-0.02 0,-0.04 8.76,-0.35 8.04,-3.07 8.04,-3.07 0,0 0.33,-1.88 0.83,-4.95 2.52,-0.52 3.68,-1.2 4.2,-1.76 -0.52,5.43 0.37,7.66 3.1,14.28 2.72,6.57 8.31,-5.42 10.14,-16.49 1.63,-9.78 -5.94,-25.01 -8.5,-24.18 z"
   id="path167" />
			<path
   class="st9"
   d="m 1183.99,478.74 c 0.77,-0.56 1.58,-1.11 2.41,-1.65 0.01,0 -0.95,0.41 -2.41,1.65 z"
   id="path169" />
		</g>
	</g>
	<circle
   class="st1"
   cx="1106.65"
   cy="840.76001"
   r="22.66"
   id="circle175" />
	
		<linearGradient
   id="SVGID_00000034084534055543216910000004166051567429230001_"
   gradientUnits="userSpaceOnUse"
   x1="1078.629"
   y1="850.2655"
   x2="1078.629"
   y2="538.88867">
		<stop
   offset="0.1732"
   style="stop-color:#F15A24"
   id="stop177" />
		<stop
   offset="0.3436"
   style="stop-color:#FBB641"
   id="stop179" />
		<stop
   offset="0.3746"
   style="stop-color:#FCC54F"
   id="stop181" />
		<stop
   offset="0.4341"
   style="stop-color:#FEED73"
   id="stop183" />
		<stop
   offset="0.4497"
   style="stop-color:#FFF87D"
   id="stop185" />
		<stop
   offset="0.7235"
   style="stop-color:#FFFFFF"
   id="stop187" />
	</linearGradient>
	<path
   style="fill:url(#SVGID_00000034084534055543216910000004166051567429230001_)"
   d="m 1034.42,850.27 h 88.42 c 0,0 -5.36,-26.59 -9.73,-59.53 -4.37,-32.94 -14.28,-83.53 -12.78,-117.09 1.47,-32.86 -3.63,-54.55 -1.91,-67.65 1.72,-13.1 0.77,-67.11 0.77,-67.11 h -45.67 c 0,0 2.78,49.53 4.88,63.26 2.1,13.73 -0.14,33.95 0.03,65.71 0.17,31.76 -6.55,84.05 -10.44,115.06 -3.88,31 -13.57,67.35 -13.57,67.35 z"
   id="path190" />
	<path
   class="st11"
   d="m 1110.42,775.82 c 89.19,-11.38 163.61,-69.98 197.43,-149.95 H 849.4 c 34.07,80.54 109.34,139.41 199.4,150.18"
   id="path192" />
	
		<linearGradient
   id="SVGID_00000028322864434863076000000004219915078403206843_"
   gradientUnits="userSpaceOnUse"
   x1="790.94287"
   y1="854.92828"
   x2="1377.0703"
   y2="854.92828">
		<stop
   offset="0.2207"
   style="stop-color:#FFFFFF"
   id="stop194" />
		<stop
   offset="0.3101"
   style="stop-color:#FFF87D"
   id="stop196" />
		<stop
   offset="0.3547"
   style="stop-color:#FBB03B"
   id="stop198" />
		<stop
   offset="0.3708"
   style="stop-color:#FAA738"
   id="stop200" />
		<stop
   offset="0.3974"
   style="stop-color:#F78D32"
   id="stop202" />
		<stop
   offset="0.4311"
   style="stop-color:#F26427"
   id="stop204" />
		<stop
   offset="0.4385"
   style="stop-color:#F15A24"
   id="stop206" />
		<stop
   offset="0.5615"
   style="stop-color:#F36C2E"
   id="stop208" />
		<stop
   offset="0.6508"
   style="stop-color:#F7A04B"
   id="stop210" />
		<stop
   offset="0.7235"
   style="stop-color:#FFF87D"
   id="stop212" />
		<stop
   offset="0.7905"
   style="stop-color:#FFFFFF"
   id="stop214" />
	</linearGradient>
	<path
   style="fill:url(#SVGID_00000028322864434863076000000004219915078403206843_)"
   d="m 1362.31,848.59 c 0.31,-1.13 0.48,-2.31 0.48,-3.53 0,-7.44 -6.03,-13.47 -13.47,-13.47 -1.89,0 -3.69,0.39 -5.32,1.09 -6.45,-9.48 -17.33,-15.71 -29.66,-15.71 -16.42,0 -30.25,11.04 -34.49,26.1 -3.57,-2.27 -7.8,-3.59 -12.34,-3.59 -1.85,0 -3.65,0.22 -5.37,0.64 -1.39,-0.54 -2.83,-0.98 -4.31,-1.3 0.46,-1.68 0.7,-3.44 0.7,-5.26 0,-11.08 -8.98,-20.05 -20.05,-20.05 -2.81,0 -5.49,0.58 -7.92,1.63 -9.6,-14.12 -25.79,-23.39 -44.15,-23.39 -17.38,0 -32.81,8.31 -42.56,21.17 -1.29,-0.26 -2.62,-0.4 -3.99,-0.4 -2.81,0 -5.49,0.58 -7.92,1.63 -9.6,-14.12 -25.79,-23.39 -44.15,-23.39 -16.89,0 -31.93,7.85 -41.71,20.09 -1.59,-0.41 -3.26,-0.62 -4.98,-0.62 -2.81,0 -5.49,0.58 -7.92,1.63 -9.6,-14.12 -25.79,-23.39 -44.15,-23.39 -24.44,0 -45.02,16.43 -51.35,38.85 -5.31,-3.38 -11.61,-5.35 -18.37,-5.35 -9.67,0 -18.39,4.01 -24.62,10.44 -1.48,0.12 -2.9,0.48 -4.21,1.04 -6.45,-9.48 -17.33,-15.71 -29.66,-15.71 -16.42,0 -30.25,11.04 -34.49,26.1 -3.57,-2.27 -7.8,-3.59 -12.34,-3.59 -12.72,0 -23.03,10.31 -23.03,23.03 0,12.72 10.31,23.03 23.03,23.03 1.09,0 2.16,-0.08 3.22,-0.23 1.39,5.92 6.7,10.33 13.04,10.33 2.59,0 5.01,-0.75 7.06,-2.02 1.39,3.43 4.74,5.85 8.67,5.85 2.93,0 5.54,-1.35 7.26,-3.45 3.21,4.87 8.73,8.09 15.01,8.09 8.56,0 15.72,-5.99 17.53,-14.01 0.15,0.01 0.29,0.02 0.44,0.02 4.49,0 8.31,-2.85 9.77,-6.83 2,1.09 4.23,1.81 6.59,2.11 4.95,2.78 10.67,4.38 16.75,4.38 1.62,0 3.21,-0.12 4.77,-0.34 2.07,8.81 9.98,15.37 19.43,15.37 3.86,0 7.46,-1.1 10.51,-2.99 2.07,5.1 7.06,8.7 12.9,8.7 4.36,0 8.25,-2 10.8,-5.14 4.79,7.25 13,12.04 22.34,12.04 12.12,0 22.36,-8.07 25.64,-19.13 3.59,5.32 9.67,8.82 16.57,8.82 3.86,0 7.46,-1.1 10.51,-2.99 2.07,5.1 7.06,8.7 12.9,8.7 4.36,0 8.25,-2 10.8,-5.14 4.79,7.25 13,12.04 22.34,12.04 12.41,0 22.84,-8.45 25.87,-19.91 3.63,5.03 9.53,8.3 16.2,8.3 3.86,0 7.46,-1.1 10.51,-2.99 2.07,5.1 7.06,8.7 12.9,8.7 4.36,0 8.25,-2 10.8,-5.14 4.79,7.25 13,12.04 22.34,12.04 12.75,0 23.41,-8.92 26.09,-20.86 0.22,0.01 0.44,0.03 0.66,0.03 6.69,0 12.37,-4.24 14.55,-10.17 3.94,2.14 8.45,3.36 13.25,3.36 7.35,0 14.03,-2.86 19,-7.52 1.72,5.43 6.79,9.36 12.79,9.36 2.59,0 5.01,-0.75 7.06,-2.02 1.39,3.43 4.74,5.85 8.67,5.85 2.93,0 5.54,-1.35 7.26,-3.45 3.21,4.87 8.73,8.09 15.01,8.09 8.56,0 15.72,-5.99 17.53,-14.01 0.15,0.01 0.29,0.02 0.44,0.02 4.49,0 8.31,-2.85 9.77,-6.83 2.65,1.44 5.68,2.25 8.9,2.25 10.31,0 18.67,-8.36 18.67,-18.67 -0.04,-9.05 -6.37,-16.54 -14.8,-18.33 z"
   id="path217" />
	<path
   class="st1"
   d="m 1004.21,838.17 c 13.84,-8.53 31.8,-4.49 40.12,9.01 0.17,0.27 0.32,0.54 0.47,0.82 -0.66,-1.88 -1.52,-3.72 -2.61,-5.49 -8.31,-13.5 -26.28,-17.53 -40.12,-9.01 -13.57,8.36 -18.13,25.67 -10.48,39.06 -4.37,-12.52 0.59,-26.98 12.62,-34.39 z"
   id="path219" />
	<path
   class="st1"
   d="m 1044.99,869.15 c 9.63,2.75 15.27,12.57 12.6,21.95 -0.05,0.19 -0.11,0.37 -0.17,0.55 0.58,-1.08 1.06,-2.23 1.41,-3.46 2.67,-9.38 -2.97,-19.2 -12.6,-21.95 -9.44,-2.69 -19.2,2.42 -22.11,11.45 3.86,-7.18 12.49,-10.93 20.87,-8.54 z"
   id="path221" />
	<path
   class="st1"
   d="m 1120.77,870 c 5.63,-2.02 11.77,0.76 13.72,6.21 0.04,0.11 0.07,0.22 0.11,0.33 -0.09,-0.72 -0.26,-1.44 -0.51,-2.15 -1.95,-5.44 -8.09,-8.22 -13.72,-6.21 -5.52,1.97 -8.49,7.82 -6.77,13.18 -0.61,-4.81 2.28,-9.6 7.17,-11.36 z"
   id="path223" />
	<path
   class="st1"
   d="m 1069.74,842.41 c 8.27,-2.02 16.27,1.6 17.85,8.09 0.03,0.13 0.06,0.26 0.08,0.39 0.02,-0.85 -0.06,-1.71 -0.27,-2.55 -1.59,-6.49 -9.58,-10.11 -17.85,-8.09 -8.11,1.98 -13.47,8.65 -12.19,15.03 0.15,-5.66 5.18,-11.11 12.38,-12.87 z"
   id="path225" />
	<path
   class="st1"
   d="m 1146.55,844.76 c 10.07,-3.6 20.73,0.45 23.81,9.06 0.06,0.17 0.11,0.34 0.17,0.52 -0.11,-1.15 -0.36,-2.3 -0.77,-3.42 -3.08,-8.61 -13.74,-12.66 -23.81,-9.06 -9.87,3.53 -15.5,13.11 -12.82,21.59 -0.75,-7.66 4.67,-15.55 13.42,-18.69 z"
   id="path227" />
	<path
   class="st1"
   d="m 1095.22,842.6 c 4.84,-1.18 9.49,0.83 10.38,4.49 0.02,0.07 0.03,0.15 0.05,0.22 0.02,-0.48 -0.03,-0.96 -0.15,-1.44 -0.9,-3.67 -5.55,-5.68 -10.38,-4.49 -4.74,1.16 -7.9,4.96 -7.18,8.56 0.11,-3.21 3.07,-6.32 7.28,-7.34 z"
   id="path229" />
	<path
   class="st1"
   d="m 1063.82,883 c 3.61,-0.88 7.16,0.97 7.94,4.14 0.02,0.06 0.03,0.13 0.04,0.19 0,-0.41 -0.05,-0.83 -0.15,-1.24 -0.77,-3.17 -4.33,-5.02 -7.94,-4.14 -3.54,0.86 -5.81,4.03 -5.17,7.14 0,-2.74 2.15,-5.33 5.28,-6.09 z"
   id="path231" />
	<polygon
   class="st1"
   points="1379.96,669.76 1377.1,672.19 1377.77,675.63 1374.24,674.01 1370.7,675.63 1371.38,672.19 1368.51,669.76 1372.47,669.26 1374.24,666.13 1376,669.26 "
   id="polygon233" />
	<g
   id="g239">
		<path
   d="m 1077.66,569.43 c 4.23,0 5.32,-7.98 5.44,-11.5 0.13,-3.53 6.6,-109.81 6.6,-109.81 0,-6.44 -4.58,-11.71 -10.18,-11.71 h -0.59 c -5.6,0 -10.18,5.27 -10.18,11.71 0,0 3.71,105.28 3.71,110.29 0,5.01 0.97,11.02 5.2,11.02 z"
   id="path235" />
		<path
   class="st1"
   d="m 1077.66,569.43 c 5.72,-0.76 5.02,-11.11 5.1,-15.41 -0.01,-5.89 -0.04,-11.78 0.12,-17.66 1.54,-25.42 3.79,-62.8 5.31,-88.13 0.24,-8.58 -9.32,-14.27 -15.5,-7.17 -1.63,1.98 -2.47,4.61 -2.44,7.21 l 0.59,17.65 1.19,35.31 1.19,35.31 c -0.01,5.89 -0.19,11.77 -0.35,17.65 0.1,4.45 -1.47,14.63 4.79,15.24 z m 0,0 c -6.02,-0.28 -5.28,-10.95 -5.9,-15.24 -1.59,-11.76 -2.33,-40.7 -2.73,-52.93 -0.39,-11.59 -1.41,-41.7 -1.78,-52.93 -0.27,-8.91 8.21,-16.4 16.9,-12.32 4.56,2.26 7.14,7.35 7.04,12.32 -1.52,25.29 -3.77,62.75 -5.28,88.14 -0.55,5.87 -1.28,11.73 -1.99,17.6 -0.69,4.28 -0.71,14.77 -6.26,15.36 z"
   id="path237" />
	</g>
	<circle
   class="st1"
   cx="922.54999"
   cy="806.44"
   r="5.7600002"
   id="circle241" />
	<circle
   class="st1"
   cx="1263.16"
   cy="810.03003"
   r="4.6399999"
   id="circle243" />
	<path
   class="st1"
   d="m 1225.7,850.83 c 12,1.58 20.57,11.59 19.16,22.37 -0.03,0.22 -0.07,0.43 -0.1,0.64 0.49,-1.28 0.84,-2.63 1.03,-4.04 1.42,-10.78 -7.16,-20.79 -19.16,-22.37 -11.76,-1.55 -22.43,5.59 -24.19,16.01 3.25,-8.53 12.83,-13.99 23.26,-12.61 z"
   id="path245" />
	<path
   class="st1"
   d="m 1241.76,820.52 c 8.15,1.98 13.32,9.51 11.55,16.84 -0.04,0.15 -0.08,0.29 -0.12,0.43 0.43,-0.85 0.77,-1.75 1.01,-2.71 1.78,-7.32 -3.39,-14.86 -11.55,-16.84 -7.99,-1.94 -15.87,2.19 -17.86,9.24 2.88,-5.62 9.89,-8.67 16.97,-6.96 z"
   id="path247" />
	<path
   class="st1"
   d="m 1073.42,842.2 c 14.67,2.34 24.99,14.12 23.04,26.31 -0.04,0.24 -0.09,0.48 -0.14,0.72 0.62,-1.44 1.08,-2.95 1.33,-4.55 1.94,-12.19 -8.37,-23.97 -23.04,-26.31 -14.38,-2.29 -27.59,5.33 -29.94,17.11 4.16,-9.55 16,-15.32 28.75,-13.28 z"
   id="path249" />
	<path
   class="st1"
   d="m 1111.18,846.67 c 10.17,-3.18 20.74,1.7 23.62,10.91 0.06,0.18 0.11,0.37 0.16,0.55 -0.09,-1.21 -0.31,-2.43 -0.69,-3.63 -2.88,-9.21 -13.46,-14.09 -23.62,-10.91 -9.96,3.12 -15.83,12.82 -13.35,21.88 -0.57,-8.08 5.04,-16.03 13.88,-18.8 z"
   id="path251" />
	<path
   class="st1"
   d="m 956.54,858.74 c 9.32,-4.42 21.16,1.04 26.45,12.19 0.11,0.22 0.2,0.45 0.3,0.67 -0.4,-1.49 -0.95,-2.97 -1.64,-4.42 -5.29,-11.15 -17.13,-16.61 -26.45,-12.19 -9.13,4.33 -12.44,16.54 -7.59,27.52 -2.69,-9.88 0.83,-19.93 8.93,-23.77 z"
   id="path253" />
	<path
   class="st1"
   d="m 997.03,861.03 c 13.54,-4.9 27.93,0.54 32.13,12.14 0.08,0.23 0.16,0.46 0.23,0.7 -0.16,-1.55 -0.5,-3.1 -1.05,-4.62 -4.2,-11.61 -18.58,-17.04 -32.13,-12.14 -13.27,4.8 -20.81,17.75 -17.15,29.19 -1.06,-10.34 6.2,-21.01 17.97,-25.27 z"
   id="path255" />
	<path
   class="st1"
   d="m 1073.34,886.95 c 12.33,0 22.32,7.71 22.32,17.22 0,0.19 -0.01,0.38 -0.02,0.57 0.32,-1.17 0.5,-2.38 0.5,-3.62 0,-9.51 -9.99,-17.22 -22.32,-17.22 -12.08,0 -21.92,7.41 -22.3,16.65 2.15,-7.77 11.1,-13.6 21.82,-13.6 z"
   id="path257" />
	<path
   class="st13"
   d="m 1164.32,877.83 c 7.31,-0.56 13.51,2.75 13.87,7.39 0.01,0.09 0.01,0.18 0.01,0.28 0.15,-0.58 0.21,-1.18 0.16,-1.79 -0.35,-4.64 -6.56,-7.94 -13.87,-7.39 -7.16,0.55 -12.71,4.6 -12.6,9.13 0.99,-3.89 6.08,-7.13 12.43,-7.62 z"
   id="path259" />
	<path
   class="st13"
   d="m 1185.9,882.1 c 4.63,-0.35 8.56,1.57 8.76,4.3 0,0.05 0,0.11 0.01,0.16 0.1,-0.34 0.14,-0.7 0.11,-1.05 -0.21,-2.73 -4.13,-4.66 -8.76,-4.3 -4.54,0.35 -8.07,2.76 -8.01,5.42 0.63,-2.29 3.87,-4.22 7.89,-4.53 z"
   id="path261" />
	<path
   class="st1"
   d="m 1320.44,832.11 c 12,1.58 20.57,11.59 19.16,22.37 -0.03,0.22 -0.07,0.43 -0.1,0.64 0.49,-1.28 0.84,-2.63 1.03,-4.04 1.42,-10.78 -7.16,-20.79 -19.16,-22.37 -11.76,-1.55 -22.43,5.59 -24.19,16.01 3.25,-8.52 12.83,-13.98 23.26,-12.61 z"
   id="path263" />
	<path
   class="st1"
   d="m 1265.26,846.99 c 7.52,-1.68 14.84,2.44 16.35,9.2 0.03,0.13 0.05,0.27 0.08,0.4 0.01,-0.87 -0.07,-1.76 -0.27,-2.64 -1.51,-6.76 -8.83,-10.87 -16.35,-9.2 -7.37,1.64 -12.2,8.24 -10.97,14.87 0.09,-5.82 4.62,-11.17 11.16,-12.63 z"
   id="path265" />
	<path
   class="st1"
   d="m 1295.4,859.81 c 12.14,-2.71 23.94,3.94 26.37,14.84 0.05,0.22 0.09,0.43 0.13,0.65 0.02,-1.41 -0.12,-2.84 -0.43,-4.26 -2.43,-10.9 -14.24,-17.54 -26.37,-14.84 -11.89,2.65 -19.68,13.3 -17.7,23.98 0.13,-9.37 7.45,-18.02 18,-20.37 z"
   id="path267" />
	<path
   class="st13"
   d="m 1329.64,869 c 4.63,-0.35 8.56,1.57 8.76,4.3 0,0.05 0,0.11 0.01,0.16 0.1,-0.34 0.14,-0.7 0.11,-1.05 -0.21,-2.73 -4.13,-4.66 -8.76,-4.3 -4.54,0.35 -8.07,2.76 -8.01,5.42 0.63,-2.29 3.86,-4.22 7.89,-4.53 z"
   id="path269" />
	<path
   class="st1"
   d="m 838.92,857.49 c 14.67,2.34 24.99,14.12 23.04,26.31 -0.04,0.24 -0.09,0.48 -0.14,0.72 0.62,-1.44 1.08,-2.95 1.33,-4.55 1.94,-12.19 -8.37,-23.97 -23.04,-26.31 -14.38,-2.29 -27.59,5.33 -29.95,17.11 4.16,-9.54 16.01,-15.31 28.76,-13.28 z"
   id="path271" />
	<path
   class="st1"
   d="m 866.1,842.73 c 10.54,1.58 17.92,10.59 16.5,20.13 -0.03,0.19 -0.07,0.38 -0.1,0.57 0.45,-1.13 0.78,-2.32 0.97,-3.57 1.43,-9.54 -5.96,-18.55 -16.5,-20.13 -10.33,-1.54 -19.84,4.63 -21.56,13.86 3.01,-7.52 11.53,-12.23 20.69,-10.86 z"
   id="path273" />
	<path
   class="st13"
   d="m 874.99,874.19 c 7.31,-0.56 13.52,2.75 13.87,7.39 0.01,0.09 0.01,0.18 0.01,0.28 0.15,-0.58 0.21,-1.18 0.16,-1.79 -0.35,-4.64 -6.56,-7.94 -13.87,-7.39 -7.16,0.55 -12.71,4.6 -12.6,9.13 0.99,-3.88 6.08,-7.13 12.43,-7.62 z"
   id="path275" />
	<circle
   class="st14"
   cx="1393.49"
   cy="876.98999"
   r="8.21"
   id="circle277" />
	<circle
   class="st15"
   cx="780.38"
   cy="877.23999"
   r="9.2799997"
   id="circle279" />
	<path
   class="st16"
   d="m 1362.49,863.32 c 0.31,-0.91 0.48,-1.87 0.48,-2.86 0,-6.02 -6.03,-10.9 -13.47,-10.9 -1.89,0 -3.69,0.32 -5.32,0.89 -6.45,-7.67 -17.33,-12.71 -29.66,-12.71 -16.42,0 -30.25,8.93 -34.49,21.11 -3.57,-1.84 -7.8,-2.91 -12.34,-2.91 -1.85,0 -3.65,0.18 -5.37,0.52 -1.39,-0.44 -2.83,-0.8 -4.31,-1.05 0.46,-1.36 0.7,-2.78 0.7,-4.26 0,-8.96 -8.98,-16.22 -20.05,-16.22 -2.81,0 -5.49,0.47 -7.92,1.32 -9.6,-11.42 -25.79,-18.92 -44.15,-18.92 -17.38,0 -32.81,6.72 -42.56,17.13 -1.29,-0.21 -2.62,-0.32 -3.99,-0.32 -2.81,0 -5.49,0.47 -7.92,1.32 -9.6,-11.42 -25.79,-18.92 -44.15,-18.92 -16.89,0 -31.93,6.35 -41.71,16.26 -1.59,-0.33 -3.26,-0.51 -4.98,-0.51 -2.81,0 -5.49,0.47 -7.92,1.32 -9.6,-11.42 -25.79,-18.92 -44.15,-18.92 -24.44,0 -45.02,13.29 -51.35,31.43 -5.31,-2.74 -11.61,-4.33 -18.37,-4.33 -9.67,0 -18.39,3.24 -24.62,8.45 -1.48,0.1 -2.9,0.38 -4.21,0.84 -6.45,-7.67 -17.33,-12.71 -29.66,-12.71 -16.42,0 -30.25,8.93 -34.49,21.11 -3.57,-1.84 -7.8,-2.91 -12.34,-2.91 -12.72,0 -23.03,8.34 -23.03,18.63 0,10.29 10.31,18.63 23.03,18.63 1.09,0 2.16,-0.07 3.22,-0.18 1.39,4.79 6.7,8.36 13.04,8.36 2.59,0 5.01,-0.61 7.06,-1.64 1.39,2.78 4.74,4.74 8.67,4.74 2.93,0 5.54,-1.09 7.26,-2.79 3.21,3.94 8.73,6.54 15.01,6.54 8.56,0 15.72,-4.85 17.53,-11.34 0.15,0.01 0.29,0.02 0.44,0.02 4.49,0 8.31,-2.3 9.77,-5.53 2,0.88 4.23,1.47 6.59,1.7 4.95,2.25 10.67,3.54 16.75,3.54 1.62,0 3.21,-0.1 4.77,-0.27 2.07,7.13 9.98,12.44 19.43,12.44 3.86,0 7.46,-0.89 10.51,-2.42 2.07,4.12 7.06,7.04 12.9,7.04 4.36,0 8.25,-1.62 10.8,-4.16 4.79,5.87 13,9.74 22.34,9.74 12.12,0 22.36,-6.53 25.64,-15.47 3.59,4.3 9.67,7.13 16.57,7.13 3.86,0 7.46,-0.89 10.51,-2.42 2.07,4.12 7.06,7.04 12.9,7.04 4.36,0 8.25,-1.62 10.8,-4.16 4.79,5.87 13,9.74 22.34,9.74 12.41,0 22.84,-6.84 25.87,-16.11 3.63,4.07 9.53,6.71 16.2,6.71 3.86,0 7.46,-0.89 10.51,-2.42 2.07,4.12 7.06,7.04 12.9,7.04 4.36,0 8.25,-1.62 10.8,-4.16 4.79,5.87 13,9.74 22.34,9.74 12.75,0 23.41,-7.22 26.09,-16.87 0.22,0.01 0.44,0.03 0.66,0.03 6.69,0 12.37,-3.43 14.55,-8.23 3.94,1.73 8.45,2.71 13.25,2.71 7.35,0 14.03,-2.31 19,-6.08 1.72,4.39 6.79,7.57 12.79,7.57 2.59,0 5.01,-0.61 7.06,-1.64 1.39,2.78 4.74,4.74 8.67,4.74 2.93,0 5.54,-1.09 7.26,-2.79 3.21,3.94 8.73,6.54 15.01,6.54 8.56,0 15.72,-4.85 17.53,-11.34 0.15,0.01 0.29,0.02 0.44,0.02 4.49,0 8.31,-2.3 9.77,-5.53 2.65,1.16 5.68,1.82 8.9,1.82 10.31,0 18.67,-6.76 18.67,-15.11 -0.04,-7.28 -6.36,-13.34 -14.8,-14.8 z"
   id="path281" />
	<ellipse
   class="st1"
   cx="921.38"
   cy="843.46997"
   rx="22.08"
   ry="9.2600002"
   id="ellipse283" />
	<ellipse
   class="st1"
   cx="933.59003"
   cy="851.46002"
   rx="11.04"
   ry="6.5100002"
   id="ellipse285" />
	<ellipse
   class="st1"
   cx="1273.79"
   cy="850.79999"
   rx="18.07"
   ry="8.8400002"
   id="ellipse287" />
	<ellipse
   class="st1"
   cx="1291.85"
   cy="848.15997"
   rx="11.71"
   ry="6.3099999"
   id="ellipse289" />
	<ellipse
   class="st1"
   cx="820.22998"
   cy="863.41998"
   rx="14.38"
   ry="7.0300002"
   id="ellipse291" />
	<path
   class="st14"
   d="m 1363.1,879.4 c 0.31,-0.66 0.48,-1.35 0.48,-2.07 0,-4.36 -6.03,-7.9 -13.47,-7.9 -1.89,0 -3.69,0.23 -5.32,0.64 -6.45,-5.56 -17.33,-9.22 -29.66,-9.22 -16.42,0 -30.25,6.47 -34.49,15.31 -3.57,-1.33 -7.8,-2.11 -12.34,-2.11 -1.85,0 -3.65,0.13 -5.37,0.37 -1.39,-0.32 -2.83,-0.58 -4.31,-0.76 0.45,-0.98 0.7,-2.02 0.7,-3.09 0,-6.5 -8.98,-11.76 -20.05,-11.76 -2.81,0 -5.49,0.34 -7.92,0.95 -9.6,-8.28 -25.79,-13.72 -44.15,-13.72 -17.38,0 -32.81,4.88 -42.56,12.42 -1.29,-0.15 -2.62,-0.23 -3.99,-0.23 -2.81,0 -5.49,0.34 -7.92,0.95 -9.6,-8.28 -25.79,-13.72 -44.15,-13.72 -16.89,0 -31.93,4.61 -41.71,11.79 -1.59,-0.24 -3.26,-0.37 -4.98,-0.37 -2.81,0 -5.49,0.34 -7.92,0.95 -9.6,-8.28 -25.79,-13.72 -44.15,-13.72 -24.44,0 -45.02,9.64 -51.35,22.78 -5.31,-1.98 -11.61,-3.14 -18.37,-3.14 -9.67,0 -18.39,2.35 -24.62,6.13 -1.48,0.07 -2.9,0.28 -4.21,0.61 -6.45,-5.56 -17.33,-9.22 -29.66,-9.22 -16.42,0 -30.25,6.47 -34.49,15.31 -3.57,-1.33 -7.8,-2.11 -12.34,-2.11 -12.72,0 -22.34,-1.41 -22.34,6.04 0,7.46 9.62,20.97 22.34,20.97 1.09,0 2.16,-0.05 3.22,-0.13 1.39,3.47 6.7,6.06 13.04,6.06 2.59,0 5.01,-0.44 7.06,-1.19 1.39,2.01 4.74,3.43 8.67,3.43 2.93,0 5.54,-0.79 7.26,-2.03 3.21,2.86 8.73,4.74 15.01,4.74 8.56,0 15.72,-3.51 17.53,-8.22 0.15,0 0.29,0.01 0.44,0.01 4.49,0 8.31,-1.67 9.77,-4.01 2,0.64 4.23,1.06 6.59,1.24 4.95,1.63 10.67,2.57 16.75,2.57 1.62,0 3.21,-0.07 4.77,-0.2 2.07,5.17 9.98,9.02 19.43,9.02 3.86,0 7.46,-0.64 10.51,-1.76 2.07,2.99 7.06,5.1 12.9,5.1 4.36,0 8.25,-1.18 10.8,-3.01 4.79,4.25 13,7.06 22.34,7.06 12.12,0 22.36,-4.73 25.64,-11.22 3.59,3.12 9.67,5.17 16.57,5.17 3.86,0 7.46,-0.64 10.51,-1.76 2.07,2.99 7.06,5.1 12.9,5.1 4.36,0 8.25,-1.18 10.8,-3.01 4.79,4.25 13,7.06 22.34,7.06 12.41,0 22.84,-4.96 25.87,-11.68 3.63,2.95 9.53,4.87 16.2,4.87 3.86,0 7.46,-0.64 10.51,-1.76 2.07,2.99 7.06,5.1 12.9,5.1 4.36,0 8.25,-1.18 10.8,-3.01 4.79,4.25 13,7.06 22.34,7.06 12.75,0 23.41,-5.23 26.09,-12.23 0.22,0.01 0.44,0.02 0.66,0.02 6.69,0 12.37,-2.49 14.55,-5.96 3.94,1.26 8.45,1.97 13.25,1.97 7.35,0 14.03,-1.68 19,-4.41 1.72,3.18 6.79,5.49 12.79,5.49 2.59,0 5.01,-0.44 7.06,-1.19 1.39,2.01 4.74,3.43 8.67,3.43 2.93,0 5.54,-0.79 7.26,-2.03 3.21,2.86 8.73,4.74 15.01,4.74 8.56,0 15.72,-3.51 17.53,-8.22 0.15,0 0.29,0.01 0.44,0.01 4.49,0 8.31,-1.67 9.77,-4.01 2.65,0.84 5.68,1.32 8.9,1.32 10.31,0 18.67,-4.9 18.67,-10.95 -0.03,-5.21 -6.36,-9.6 -14.8,-10.66 z"
   id="path293" />
	<ellipse
   class="st14"
   cx="1073.8199"
   cy="849"
   rx="10.47"
   ry="5.52"
   id="ellipse295" />
	<ellipse
   class="st14"
   cx="987.90002"
   cy="844.38"
   rx="10.61"
   ry="5.52"
   id="ellipse297" />
	<ellipse
   class="st14"
   cx="1188.13"
   cy="848.42999"
   rx="15.03"
   ry="10.23"
   id="ellipse299" />
	<ellipse
   class="st14"
   cx="1170.53"
   cy="848.42999"
   rx="8.75"
   ry="5.8099999"
   id="ellipse301" />
	<ellipse
   class="st14"
   cx="1056.14"
   cy="854.92999"
   rx="13.9"
   ry="9.2299995"
   id="ellipse303" />
	
		<ellipse
   transform="matrix(0.2887,-0.9574,0.9574,0.2887,-95.5752,1562.5179)"
   class="st14"
   cx="1003.76"
   cy="845.58002"
   rx="8.2399998"
   ry="10.39"
   id="ellipse305" />
	
		<ellipse
   transform="matrix(0.2887,-0.9574,0.9574,0.2887,-197.8672,1469.4662)"
   class="st14"
   cx="889.98999"
   cy="867.89001"
   rx="3.9000001"
   ry="6.6399999"
   id="ellipse307" />
	
		<ellipse
   transform="matrix(0.9915,-0.1299,0.1299,0.9915,-103.025,174.4104)"
   class="st14"
   cx="1285.9301"
   cy="877.23999"
   rx="17.42"
   ry="8.2600002"
   id="ellipse309" />
	
		<ellipse
   transform="matrix(0.2186,-0.9758,0.9758,0.2186,195.4286,1969.8115)"
   class="st14"
   cx="1327.7"
   cy="862.88"
   rx="6.46"
   ry="11.31"
   id="ellipse311" />
	
		<ellipse
   transform="matrix(0.2186,-0.9758,0.9758,0.2186,121.8106,1871.3556)"
   class="st14"
   cx="1229.41"
   cy="859.62"
   rx="9.5500002"
   ry="11.31"
   id="ellipse313" />
	<ellipse
   class="st14"
   cx="1139.38"
   cy="855.59998"
   rx="15.03"
   ry="10.23"
   id="ellipse315" />
	<ellipse
   class="st14"
   cx="930.89001"
   cy="870.79999"
   rx="15.03"
   ry="10.23"
   id="ellipse317" />
	<ellipse
   class="st14"
   cx="871.28998"
   cy="865.46997"
   rx="15.03"
   ry="10.23"
   id="ellipse319" />
	<path
   class="st15"
   d="m 1362.77,883.11 c 0.31,-0.41 0.48,-0.83 0.48,-1.28 0,-2.69 -6.03,-4.87 -13.47,-4.87 -1.89,0 -3.69,0.14 -5.32,0.4 -6.45,-3.43 -17.33,-5.68 -29.66,-5.68 -16.42,0 -30.25,3.99 -34.49,9.44 -3.57,-0.82 -7.8,-1.3 -12.34,-1.3 -1.85,0 -3.65,0.08 -5.37,0.23 -1.39,-0.2 -2.83,-0.36 -4.31,-0.47 0.45,-0.61 0.7,-1.24 0.7,-1.9 0,-4.01 -8.98,-7.25 -20.05,-7.25 -2.81,0 -5.49,0.21 -7.92,0.59 -9.6,-5.1 -25.79,-8.46 -44.15,-8.46 -17.38,0 -32.81,3.01 -42.56,7.66 -1.29,-0.09 -2.62,-0.14 -3.99,-0.14 -2.81,0 -5.49,0.21 -7.92,0.59 -9.6,-5.1 -25.79,-8.46 -44.15,-8.46 -16.89,0 -31.93,2.84 -41.71,7.27 -1.59,-0.15 -3.26,-0.23 -4.98,-0.23 -2.81,0 -5.49,0.21 -7.92,0.59 -9.6,-5.1 -25.79,-8.46 -44.15,-8.46 -24.44,0 -45.02,5.94 -51.35,14.05 -5.31,-1.22 -11.61,-1.93 -18.37,-1.93 -9.67,0 -18.39,1.45 -24.62,3.78 -1.48,0.04 -2.9,0.17 -4.21,0.38 -6.45,-3.43 -17.33,-5.68 -29.66,-5.68 -16.42,0 -30.25,3.99 -34.49,9.44 -3.57,-0.82 -7.8,-1.3 -12.34,-1.3 -12.72,0 -22.34,-0.87 -22.34,3.73 0,4.6 9.62,12.93 22.34,12.93 1.09,0 2.16,-0.03 3.22,-0.08 1.39,2.14 6.7,3.74 13.04,3.74 2.59,0 5.01,-0.27 7.06,-0.73 1.39,1.24 4.74,2.12 8.67,2.12 2.93,0 5.54,-0.49 7.26,-1.25 3.21,1.76 8.73,2.92 15.01,2.92 8.56,0 15.72,-2.17 17.53,-5.07 0.15,0 0.29,0.01 0.44,0.01 4.49,0 8.31,-1.03 9.77,-2.47 2,0.39 4.23,0.66 6.59,0.76 4.95,1.01 10.67,1.58 16.75,1.58 1.62,0 3.21,-0.04 4.77,-0.12 2.07,3.19 9.98,5.56 19.43,5.56 3.86,0 7.46,-0.4 10.51,-1.08 2.07,1.84 7.06,3.15 12.9,3.15 4.36,0 8.25,-0.72 10.8,-1.86 4.79,2.62 13,4.35 22.34,4.35 12.12,0 22.36,-2.92 25.64,-6.92 3.59,1.92 9.67,3.19 16.57,3.19 3.86,0 7.46,-0.4 10.51,-1.08 2.07,1.84 7.06,3.15 12.9,3.15 4.36,0 8.25,-0.72 10.8,-1.86 4.79,2.62 13,4.35 22.34,4.35 12.41,0 22.84,-3.06 25.87,-7.2 3.63,1.82 9.53,3 16.2,3 3.86,0 7.46,-0.4 10.51,-1.08 2.07,1.84 7.06,3.15 12.9,3.15 4.36,0 8.25,-0.72 10.8,-1.86 4.79,2.62 13,4.35 22.34,4.35 12.75,0 23.41,-3.23 26.09,-7.54 0.22,0 0.44,0.01 0.66,0.01 6.69,0 12.37,-1.53 14.55,-3.68 3.94,0.77 8.45,1.21 13.25,1.21 7.35,0 14.03,-1.03 19,-2.72 1.72,1.96 6.79,3.39 12.79,3.39 2.59,0 5.01,-0.27 7.06,-0.73 1.39,1.24 4.74,2.12 8.67,2.12 2.93,0 5.54,-0.49 7.26,-1.25 3.21,1.76 8.73,2.92 15.01,2.92 8.56,0 15.72,-2.17 17.53,-5.07 0.15,0 0.29,0.01 0.44,0.01 4.49,0 8.31,-1.03 9.77,-2.47 2.65,0.52 5.68,0.82 8.9,0.82 10.31,0 18.67,-3.02 18.67,-6.75 -0.04,-3.3 -6.36,-6.01 -14.8,-6.66 z"
   id="path321" />
	<ellipse
   class="st14"
   cx="993.78998"
   cy="872.96997"
   rx="45.130001"
   ry="21.35"
   id="ellipse323" />
	<ellipse
   class="st14"
   cx="894.13"
   cy="877.23999"
   rx="28.34"
   ry="8.5"
   id="ellipse325" />
	<ellipse
   class="st14"
   cx="847.46002"
   cy="881.85999"
   rx="28.34"
   ry="8.5"
   id="ellipse327" />
	<ellipse
   class="st14"
   cx="1094.39"
   cy="875.70001"
   rx="39.080002"
   ry="21.139999"
   id="ellipse329" />
	<ellipse
   class="st14"
   cx="1134.96"
   cy="873.35999"
   rx="18.25"
   ry="9.96"
   id="ellipse331" />
	<ellipse
   class="st14"
   cx="1034.42"
   cy="870.79999"
   rx="15.81"
   ry="7.3200002"
   id="ellipse333" />
	<ellipse
   class="st14"
   cx="1018.61"
   cy="890.35999"
   rx="11.43"
   ry="4.6399999"
   id="ellipse335" />
	<ellipse
   class="st14"
   cx="964.34003"
   cy="885.71997"
   rx="17.469999"
   ry="10.53"
   id="ellipse337" />
	<ellipse
   class="st14"
   cx="1195.53"
   cy="874.04999"
   rx="39.91"
   ry="20.27"
   id="ellipse339" />
	<ellipse
   class="st14"
   cx="1315.01"
   cy="881.72998"
   rx="33.32"
   ry="12.86"
   id="ellipse341" />
	<ellipse
   class="st14"
   cx="1220.76"
   cy="886.63"
   rx="22.73"
   ry="9.6400003"
   id="ellipse343" />
	<ellipse
   class="st14"
   cx="1289.52"
   cy="896"
   rx="17.219999"
   ry="7.0900002"
   id="ellipse345" />
	<ellipse
   class="st16"
   cx="1087.8199"
   cy="848.15997"
   rx="13.99"
   ry="6.3499999"
   id="ellipse347" />
	<ellipse
   class="st16"
   cx="968.85999"
   cy="850.51001"
   rx="17.68"
   ry="5.8800001"
   id="ellipse349" />
	<ellipse
   class="st16"
   cx="851.62"
   cy="864.23999"
   rx="9.54"
   ry="3.72"
   id="ellipse351" />
	<ellipse
   class="st16"
   cx="1297.17"
   cy="869.21997"
   rx="12.74"
   ry="4.3299999"
   id="ellipse353" />
	<ellipse
   class="st16"
   cx="1341.04"
   cy="868.12"
   rx="10.91"
   ry="5.2399998"
   id="ellipse355" />
	<path
   class="st16"
   d="m 1401.33,879.41 c -2.68,-0.66 -6.74,-6.43 -10.13,-4.41 -3.39,2.02 -1.13,3.46 -1.91,9.04 -4.45,-3 -6.71,-8.39 -0.68,-13.65 4.73,-4.12 11.98,-0.95 13.08,4.05 1.1,5 -0.36,4.97 -0.36,4.97 z"
   id="path357" />
	<path
   class="st14"
   d="m 788.18,878.84 c -2.68,-0.66 -6.74,-6.43 -10.13,-4.41 -3.39,2.02 -4.07,3.12 -4.85,8.69 -4.45,-3 -3.76,-8.05 2.26,-13.3 4.73,-4.12 11.98,-0.95 13.08,4.05 1.1,5 -0.36,4.97 -0.36,4.97 z"
   id="path359" />
	<g
   id="g437">
		<path
   class="st17"
   d="m 1056.02,181.04 c 0.19,2.37 3.65,4.34 9.31,4.2 5.13,-0.13 9.28,-2.05 9.26,-4.49 0,-0.05 -0.01,-0.1 -0.02,-0.16 0,0 0.46,4.41 -9.24,4.65 -9.21,0.22 -9.31,-4.2 -9.31,-4.2 z"
   id="path361" />
		<path
   d="m 1118.52,224.7 c 12.65,21.03 20.45,48.66 15.89,51.41 -4.57,2.75 -14.67,-21.88 -27.32,-42.91 -12.65,-21.03 -36.03,-47.5 -31.47,-50.25 4.57,-2.75 30.25,20.72 42.9,41.75 z"
   id="path363" />
		<path
   class="st18"
   d="m 1129.2,501.03 c -6.01,36.23 -4.8,39.69 7.08,68.43 8.89,21.52 27.19,-17.74 33.2,-53.97 6.01,-36.23 -26.8,-95.68 -30.27,-74.77 -10.01,60.31 -4,24.09 -10.01,60.31 z"
   id="path365" />
		
			<linearGradient
   id="SVGID_00000070841492748569563350000012298815679540615051_"
   gradientUnits="userSpaceOnUse"
   x1="1075.0068"
   y1="573.51758"
   x2="1075.8029"
   y2="536.10883">
			<stop
   offset="0.2411"
   style="stop-color:#FFFFFF"
   id="stop367" />
			<stop
   offset="1"
   style="stop-color:#460F51"
   id="stop369" />
		</linearGradient>
		<path
   style="fill:url(#SVGID_00000070841492748569563350000012298815679540615051_)"
   d="m 1114.38,515.81 h -76.29 c 2.37,17.28 4.19,28.88 4.19,28.88 0,0 -0.83,10.18 34.61,10.18 35.44,0 32.76,-10.18 32.76,-10.18 0,0 2.05,-11.59 4.73,-28.88 z"
   id="path372" />
		<path
   class="st18"
   d="m 1023.09,501.03 c 6.01,36.23 4.8,39.69 -7.08,68.43 -8.89,21.52 -27.19,-17.74 -33.2,-53.97 -6.01,-36.23 26.8,-95.68 30.27,-74.77 10.01,60.31 4,24.09 10.01,60.31 z"
   id="path374" />
		<g
   class="st20"
   id="g378">
			<path
   class="st21"
   d="m 1112.37,528.49 c -2.04,2.57 -5.5,3.54 -8.46,4.6 -3.06,0.97 -6.18,1.65 -9.3,2.19 -15.46,2.45 -37.19,2.58 -51.53,-4.14 -1.4,-0.77 -2.98,-1.67 -3.73,-3.15 1.29,0.89 2.82,1.09 4.33,1.3 8.45,0.89 23.41,0.4 32.07,0.51 0,0 18.39,0.01 18.39,0.01 3.07,0 6.13,-0.01 9.19,-0.09 3.03,-0.2 6.22,0.04 9.04,-1.23 z"
   id="path376" />
		</g>
		<g
   class="st20"
   id="g382">
			<path
   class="st21"
   d="m 1141.68,437.09 c 0.37,14.66 -1.38,29.06 -3.68,43.45 -2.47,14.36 -5.48,28.56 -10.59,42.3 -0.38,-14.66 1.37,-29.07 3.68,-43.45 2.49,-14.36 5.5,-28.55 10.59,-42.3 z"
   id="path380" />
		</g>
		<path
   class="st22"
   d="m 1127.68,517.82 c -0.13,0.69 -0.18,1.4 -0.21,2.1 -0.09,2.49 -3.73,11.21 -50.34,11.21 -49.73,0 -52.91,-9.93 -53.09,-11.62 -0.03,-0.29 -0.06,-0.58 -0.11,-0.87 -1.68,-9.94 -22.86,-136.11 -22.86,-193.46 0,-59.72 0,-36.62 0,-36.62 0,0 0,-74.86 69.49,-119.16 3.97,-2.53 9.09,-2.44 12.99,0.22 69.65,47.63 69.65,118.94 69.65,118.94 0,0 0,-23.89 0,36.62 0,56.81 -22.74,178.05 -25.52,192.64 z"
   id="path384" />
		<path
   class="st23"
   d="m 1083.32,554.87 c 0.13,-3.53 5.8,-81.72 5.8,-81.72 0,-6.44 -4.58,-11.71 -10.18,-11.71 h -0.59 c -5.6,0 -10.18,5.27 -10.18,11.71 0,0 3.36,76.23 3.36,81.24"
   id="path386" />
		<path
   class="st9"
   d="m 1153.6,292.12 c 0,-0.22 0,-0.43 0,-0.63 0,0 0,-69.96 -69.65,-116.69 -3.89,-2.61 -9.01,-2.7 -12.99,-0.21 -69.49,43.46 -69.89,111.9 -69.89,111.9 0,0.2 0.39,5.41 0.39,5.63 0,0 22.19,23.14 76.06,23.14 53.89,0 76.08,-23.14 76.08,-23.14 z"
   id="path388" />
		<g
   id="g396">
			<circle
   class="st24"
   cx="1076.5699"
   cy="364.10001"
   r="31.809999"
   id="circle390" />
			<g
   id="g394">
				<path
   class="st1"
   d="m 1063.19,383.07 c -9.6,-3.9 -14.39,-15.67 -11.95,-25.58 2.29,-10.48 12.04,-18.89 22.8,-19.21 6.69,-0.32 13.7,2.45 17.67,7.78 -5.87,-2.38 -11.66,-2.83 -16.86,-1.54 -17.45,4.41 -22.66,24.58 -11.66,38.55 z"
   id="path392" />
			</g>
		</g>
		
			<linearGradient
   id="SVGID_00000181062804969601629570000000507746576372401322_"
   gradientUnits="userSpaceOnUse"
   x1="984.60413"
   y1="222.1579"
   x2="1133.4441"
   y2="251.7971">
			<stop
   offset="0"
   style="stop-color:#5D0084"
   id="stop398" />
			<stop
   offset="0.5056"
   style="stop-color:#7B22AF"
   id="stop400" />
			<stop
   offset="1"
   style="stop-color:#5D0084"
   id="stop402" />
		</linearGradient>
		<path
   style="fill:url(#SVGID_00000181062804969601629570000000507746576372401322_)"
   d="m 1153.2,287.12 c 0,-0.22 0,-0.43 0,-0.63 0,0 0,-69.96 -69.65,-116.69 -3.89,-2.61 -9.01,-2.7 -12.99,-0.21 -69.49,43.46 -69.49,116.9 -69.49,116.9 0,0.2 0,0.41 0,0.63 0,0 22.19,23.14 76.06,23.14 53.88,0 76.07,-23.14 76.07,-23.14 z"
   id="path405" />
		<path
   class="st26"
   d="m 1084.87,531.13 c 0.13,-3.53 5.8,-81.72 5.8,-81.72 0,-6.44 -4.58,-11.71 -10.18,-11.71 h -0.59 c -5.6,0 -10.18,5.27 -10.18,11.71 0,0 3.36,76.23 3.36,81.24"
   id="path407" />
		<path
   class="st18"
   d="m 1075.97,569.93 c 4.23,0 5.32,-7.98 5.44,-11.5 0.13,-3.53 6.6,-109.81 6.6,-109.81 0,-6.44 -4.58,-11.71 -10.18,-11.71 h -0.59 c -5.6,0 -10.18,5.27 -10.18,11.71 0,0 3.71,105.28 3.71,110.29 0,5.01 0.97,11.02 5.2,11.02 z"
   id="path409" />
		
			<ellipse
   transform="matrix(0.7071,-0.7071,0.7071,0.7071,56.5342,874.7012)"
   class="st27"
   cx="1084.12"
   cy="369.10999"
   rx="19.08"
   ry="16.67"
   id="ellipse411" />
		<g
   class="st28"
   id="g415">
			<path
   class="st9"
   d="m 1135.72,260.19 c 4.4,15.67 6,31.97 7.21,48.16 1.66,27 0.68,54.13 -2.01,80.99 -3.16,32.16 -9,64.2 -17.1,95.48 -2.9,10.4 -5.93,20.76 -9.44,30.99 0.52,-10.84 1.55,-21.54 2.67,-32.22 7.14,-74.38 17.41,-148.57 18.67,-223.4 z"
   id="path413" />
		</g>
		<g
   id="g419">
			<path
   class="st1"
   d="m 1006.98,437.7 c -0.72,0.49 -1.16,1.25 -1.62,1.97 -1.36,2.19 -2.5,4.52 -3.61,6.85 -4.42,9.31 -8.22,18.93 -11.46,28.69 -4.26,13.08 -7.56,26.39 -7.48,40.28 -4.65,-20.3 2.68,-42.82 11.9,-60.88 2.46,-4.65 5.16,-9.19 8.44,-13.32 1.14,-1.29 2.2,-2.87 3.83,-3.59 z"
   id="path417" />
		</g>
		<path
   class="st29"
   d="m 1070.51,169.3 c -69.49,44.3 -69.49,119.16 -69.49,119.16 0,5.22 0,15.97 0,36.62 0,57.34 21.18,183.51 22.86,193.46 0.05,0.29 0.08,0.58 0.11,0.87 0.12,1.08 1.46,5.52 15.36,8.59 -0.11,-0.29 -0.15,-0.52 -0.17,-0.68 -0.03,-0.29 -0.06,-0.58 -0.11,-0.87 -1.68,-9.94 -22.86,-136.11 -22.86,-193.46 0,-20.65 -0.44,-35.02 -0.44,-35.02 10.86,-109.81 54.74,-128.67 54.74,-128.67 z"
   id="path421" />
		<g
   id="g425">
			<path
   class="st1"
   d="m 1073.59,167.57 c -15.22,13.16 -25.67,30.72 -34.32,48.64 -0.88,2.02 -3.15,7.2 -4.04,9.14 -1.43,3.62 -2.84,7.27 -4.33,10.88 -0.37,1.06 -1.29,3.67 -1.67,4.75 -2.46,6.36 -4.35,12.79 -6.87,19.21 0.21,-4.57 0.63,-9.14 1.18,-13.69 0.67,-3.83 1.5,-8 2.29,-11.83 1.88,-7.32 4.21,-14.32 7.13,-21.3 8.27,-18.25 21.62,-37.73 40.63,-45.8 z"
   id="path423" />
		</g>
		<g
   class="st30"
   id="g429">
			<path
   class="st31"
   d="m 1075.63,440.93 c -2.61,1.02 -2.74,3.93 -3.26,6.34 -0.46,2.52 -0.8,5.73 -1.73,8.18 -1.91,-4.05 -2.13,-9.27 0.58,-13.04 0.95,-1.24 2.91,-2.36 4.41,-1.48 z"
   id="path427" />
		</g>
		
			<ellipse
   transform="matrix(0.6072,-0.7945,0.7945,0.6072,126.4173,1013.213)"
   class="st1"
   cx="1088.01"
   cy="378.73999"
   rx="5.04"
   ry="4.0700002"
   id="ellipse431" />
		<circle
   class="st1"
   cx="1095.1801"
   cy="375.20999"
   r="2.3099999"
   id="circle433" />
		<circle
   class="st1"
   cx="1095.1801"
   cy="366.16"
   r="5.0100002"
   id="circle435" />
	</g>
	<g
   id="g455">
		<path
   class="st1"
   d="M 751.02,714.35 V 634.43 H 800 v 8.91 h -29.4 v 26.64 h 19.66 v 8.82 H 770.6 v 26.64 H 800 v 8.91 z"
   id="path439" />
		<path
   class="st1"
   d="m 826.71,714.35 v -79.92 h 4.46 l 54.35,44.37 v -44.37 h 9.83 v 79.92 h -4.5 l -54.3,-44.37 v 44.37 z"
   id="path441" />
		<path
   class="st1"
   d="m 951.38,669.98 h 29.4 v 26.64 c 0,5.88 -2.09,10.31 -6.27,13.28 -4.18,2.97 -8.61,4.45 -13.3,4.45 h -19.66 c -5.36,0 -9.96,-1.74 -13.81,-5.22 -3.84,-3.48 -5.77,-7.65 -5.77,-12.51 v -44.45 c 0,-4.77 1.89,-8.92 5.67,-12.45 3.78,-3.52 8.41,-5.29 13.9,-5.29 h 19.66 c 12.31,0 18.84,5.91 19.57,17.73 h -9.83 c -0.77,-5.88 -4.01,-8.82 -9.74,-8.82 h -9.83 c -2.7,0 -5.01,0.87 -6.94,2.6 -1.93,1.73 -2.89,3.81 -2.89,6.22 v 44.45 c 0,2.44 0.96,4.52 2.89,6.24 1.93,1.72 4.24,2.58 6.94,2.58 6.25,-0.28 9.52,-3.22 9.83,-8.82 V 678.8 h -9.83 v -8.82 z"
   id="path443" />
		<path
   class="st1"
   d="m 1007.41,714.35 v -79.92 h 48.98 v 8.91 h -29.4 v 26.64 h 19.66 v 8.82 h -19.66 v 35.55 z"
   id="path445" />
		<path
   class="st1"
   d="m 1083.11,714.35 v -79.92 h 39.23 c 5.36,0 9.96,1.75 13.81,5.24 3.84,3.5 5.77,7.66 5.77,12.49 V 657 c 0,3.97 -1.5,7.79 -4.5,11.47 -3,3.68 -8.02,5.52 -15.07,5.52 h 9.74 c 2.7,0 5.01,0.87 6.94,2.62 1.93,1.75 2.89,3.84 2.89,6.29 v 31.47 h -19.57 v -26.64 c 0,-2.44 -0.97,-4.54 -2.92,-6.29 -1.95,-1.75 -4.25,-2.62 -6.91,-2.62 h -9.83 v 35.55 h -19.58 z m 19.57,-44.37 h 9.83 c 2.66,0 4.97,-0.88 6.91,-2.64 1.94,-1.76 2.92,-3.85 2.92,-6.26 v -8.91 c 0,-2.41 -0.97,-4.49 -2.92,-6.22 -1.95,-1.73 -4.25,-2.6 -6.91,-2.6 h -9.83 z"
   id="path447" />
		<path
   class="st1"
   d="m 1188.11,634.44 h 19.66 c 5.36,0 9.96,1.75 13.81,5.24 3.84,3.5 5.77,7.66 5.77,12.49 v 44.45 c 0,4.8 -1.92,8.96 -5.77,12.47 -3.84,3.51 -8.45,5.27 -13.81,5.27 h -19.66 c -5.36,0 -9.96,-1.74 -13.81,-5.22 -3.85,-3.48 -5.77,-7.65 -5.77,-12.51 v -44.45 c 0,-4.86 1.92,-9.03 5.77,-12.51 3.85,-3.48 8.45,-5.23 13.81,-5.23 z m 0,17.73 v 44.45 c 0,2.39 0.96,4.45 2.87,6.2 1.91,1.75 4.23,2.62 6.96,2.62 2.73,0 5.05,-0.87 6.96,-2.62 1.91,-1.75 2.87,-3.82 2.87,-6.2 v -44.45 c 0,-2.41 -0.97,-4.49 -2.92,-6.22 -1.95,-1.73 -4.25,-2.6 -6.91,-2.6 -2.7,0 -5.01,0.87 -6.94,2.6 -1.93,1.73 -2.89,3.81 -2.89,6.22 z"
   id="path449" />
		<path
   class="st1"
   d="m 1302.95,652.17 h -9.74 c -0.86,-5.94 -3.95,-8.91 -9.28,-8.91 -3.43,0 -6.02,0.75 -7.76,2.25 -1.75,1.5 -2.62,3.73 -2.62,6.7 0,2.22 0.96,4.3 2.89,6.24 l 20.77,21.14 c 3.83,3.88 5.74,8.06 5.74,12.53 v 4.5 c 0,4.8 -1.91,8.96 -5.74,12.47 -3.83,3.51 -8.44,5.27 -13.83,5.27 h -9.83 c -6.49,0 -11.38,-1.48 -14.66,-4.45 -3.28,-2.97 -4.92,-7.39 -4.92,-13.28 h 9.83 c -0.06,0.61 -0.09,1.1 -0.09,1.46 0,2.41 1.03,4.25 3.08,5.49 2.05,1.24 4.3,1.87 6.75,1.87 3.49,0 6,-0.76 7.54,-2.29 1.53,-1.53 2.3,-3.75 2.3,-6.66 0,-2.25 -0.96,-4.33 -2.89,-6.24 l -20.77,-21.06 c -3.83,-3.86 -5.74,-8.03 -5.74,-12.53 v -4.5 c 0,-4.83 1.91,-8.99 5.74,-12.49 3.83,-3.5 8.44,-5.24 13.83,-5.24 h 9.83 c 12.25,0 18.77,5.91 19.57,17.73 z"
   id="path451" />
		<path
   class="st1"
   d="m 1329.67,714.35 v -79.92 h 19.57 v 35.55 h 19.66 v -35.55 h 19.57 v 79.92 H 1368.9 V 678.8 h -19.66 v 35.55 z"
   id="path453" />
	</g>
	<rect
   x="748.79999"
   y="725.5"
   width="645.21002"
   height="4.3800001"
   id="rect457" />
	<g
   id="g489">
		<path
   class="st1"
   d="m 748.12,783.42 v -40.68 h 18.74 c 2.56,0 4.76,0.89 6.6,2.67 1.84,1.78 2.75,3.9 2.75,6.36 v 22.63 c 0,2.44 -0.92,4.56 -2.75,6.35 -1.84,1.79 -4.04,2.68 -6.6,2.68 h -18.74 z m 9.35,-4.53 h 4.7 c 1.3,0 2.41,-0.44 3.33,-1.33 0.91,-0.89 1.37,-1.94 1.37,-3.16 v -22.63 c 0,-1.23 -0.46,-2.28 -1.39,-3.17 -0.93,-0.89 -2.03,-1.32 -3.3,-1.32 h -4.7 v 31.61 z"
   id="path459" />
		<path
   class="st1"
   d="m 792.59,783.42 v -40.68 h 23.4 v 4.53 h -14.05 v 13.56 h 9.39 v 4.49 h -9.39 v 13.56 h 14.05 v 4.53 h -23.4 z"
   id="path461" />
		<path
   class="st1"
   d="m 855.8,751.77 h -4.65 c -0.41,-3.02 -1.89,-4.53 -4.43,-4.53 -1.64,0 -2.88,0.38 -3.71,1.14 -0.83,0.76 -1.25,1.9 -1.25,3.41 0,1.13 0.46,2.19 1.38,3.18 l 9.92,10.76 c 1.83,1.98 2.74,4.1 2.74,6.38 v 2.29 c 0,2.44 -0.91,4.56 -2.74,6.35 -1.83,1.79 -4.03,2.68 -6.61,2.68 h -4.7 c -3.1,0 -5.44,-0.76 -7,-2.27 -1.57,-1.51 -2.35,-3.76 -2.35,-6.76 h 4.7 c -0.03,0.31 -0.04,0.56 -0.04,0.74 0,1.23 0.49,2.16 1.47,2.8 0.98,0.64 2.06,0.95 3.23,0.95 1.67,0 2.87,-0.39 3.6,-1.17 0.73,-0.78 1.1,-1.91 1.1,-3.39 0,-1.14 -0.46,-2.2 -1.38,-3.18 l -9.92,-10.72 c -1.83,-1.96 -2.74,-4.09 -2.74,-6.38 v -2.29 c 0,-2.46 0.91,-4.58 2.74,-6.36 1.83,-1.78 4.03,-2.67 6.61,-2.67 h 4.7 c 5.84,0.01 8.95,3.02 9.33,9.04 z"
   id="path463" />
		<path
   class="st1"
   d="m 876.88,783.42 v -36.14 h -9.35 v -4.53 h 28.1 v 4.53 h -9.35 v 36.14 z"
   id="path465" />
		<path
   class="st1"
   d="m 912,783.42 v -40.68 h 9.37 v 40.68 z"
   id="path467" />
		<path
   class="st1"
   d="m 942.46,783.42 v -40.68 h 2.13 l 25.97,22.58 v -22.58 h 4.7 v 40.68 h -2.15 l -25.94,-22.58 v 22.58 z"
   id="path469" />
		<path
   class="st1"
   d="m 991.63,783.42 v -31.65 c 0,-2.47 0.92,-4.59 2.75,-6.37 1.83,-1.78 4.04,-2.66 6.6,-2.66 h 9.39 c 2.56,0 4.76,0.89 6.6,2.67 1.84,1.78 2.75,3.9 2.75,6.36 v 31.65 h -9.35 v -18.09 h -9.39 v 18.09 z m 9.35,-22.58 h 9.39 v -9.07 c 0,-1.23 -0.46,-2.28 -1.39,-3.17 -0.93,-0.89 -2.03,-1.32 -3.3,-1.32 -1.29,0 -2.39,0.44 -3.31,1.32 -0.92,0.88 -1.38,1.94 -1.38,3.17 v 9.07 z"
   id="path471" />
		<path
   class="st1"
   d="m 1040.75,783.42 v -36.14 h -9.35 v -4.53 h 28.1 v 4.53 h -9.35 v 36.14 z"
   id="path473" />
		<path
   class="st1"
   d="m 1075.87,783.42 v -40.68 h 9.37 v 40.68 z"
   id="path475" />
		<path
   class="st1"
   d="m 1115.69,742.74 h 9.39 c 2.56,0 4.76,0.89 6.6,2.67 1.84,1.78 2.75,3.9 2.75,6.36 v 22.63 c 0,2.44 -0.92,4.56 -2.75,6.35 -1.84,1.79 -4.04,2.68 -6.6,2.68 h -9.39 c -2.56,0 -4.76,-0.89 -6.6,-2.66 -1.84,-1.77 -2.75,-3.89 -2.75,-6.37 v -22.63 c 0,-2.47 0.92,-4.59 2.75,-6.37 1.84,-1.77 4.04,-2.66 6.6,-2.66 z m 0,9.03 v 22.63 c 0,1.21 0.46,2.27 1.37,3.16 0.91,0.89 2.02,1.33 3.33,1.33 1.3,0 2.41,-0.44 3.33,-1.33 0.91,-0.89 1.37,-1.94 1.37,-3.16 v -22.63 c 0,-1.23 -0.46,-2.28 -1.39,-3.17 -0.93,-0.88 -2.03,-1.32 -3.3,-1.32 -1.29,0 -2.39,0.44 -3.31,1.32 -0.92,0.88 -1.4,1.94 -1.4,3.17 z"
   id="path477" />
		<path
   class="st1"
   d="m 1150.81,783.42 v -40.68 h 2.13 l 25.97,22.58 v -22.58 h 4.7 v 40.68 h -2.15 l -25.94,-22.58 v 22.58 z"
   id="path479" />
		<path
   class="st1"
   d="m 1220.72,783.42 v -40.68 h 2.13 l 20.02,19.28 20,-19.28 h 4.7 v 40.68 h -9.39 v -24.87 l -16.44,15.87 -16.31,-15.87 v 24.87 z"
   id="path481" />
		<path
   class="st1"
   d="m 1283.93,783.42 v -31.65 c 0,-2.47 0.92,-4.59 2.75,-6.37 1.84,-1.77 4.04,-2.66 6.6,-2.66 h 9.39 c 2.56,0 4.76,0.89 6.6,2.67 1.84,1.78 2.75,3.9 2.75,6.36 v 31.65 h -9.35 v -18.09 h -9.39 v 18.09 z m 9.35,-22.58 h 9.39 v -9.07 c 0,-1.23 -0.46,-2.28 -1.39,-3.17 -0.93,-0.88 -2.03,-1.32 -3.3,-1.32 -1.29,0 -2.39,0.44 -3.31,1.32 -0.92,0.88 -1.38,1.94 -1.38,3.17 v 9.07 z"
   id="path483" />
		<path
   class="st1"
   d="m 1328.4,783.42 v -40.68 h 18.75 c 2.56,0 4.76,0.89 6.6,2.67 1.84,1.78 2.75,3.9 2.75,6.36 v 2.46 c 0,2.02 -0.72,3.97 -2.15,5.84 -1.43,1.87 -3.83,2.81 -7.2,2.81 h 4.65 c 1.29,0 2.39,0.45 3.31,1.33 0.92,0.88 1.38,1.96 1.38,3.2 v 16.02 h -9.35 v -13.56 c 0,-1.24 -0.46,-2.31 -1.39,-3.2 -0.93,-0.89 -2.03,-1.33 -3.3,-1.33 h -4.7 v 18.09 h -9.35 z m 9.35,-22.58 h 4.7 c 1.27,0 2.37,-0.45 3.3,-1.35 0.93,-0.9 1.39,-1.96 1.39,-3.19 v -4.53 c 0,-1.23 -0.46,-2.28 -1.39,-3.17 -0.93,-0.88 -2.03,-1.32 -3.3,-1.32 h -4.7 z"
   id="path485" />
		<path
   class="st1"
   d="m 1396.27,751.77 h -4.65 c -0.41,-3.02 -1.89,-4.53 -4.43,-4.53 -1.64,0 -2.88,0.38 -3.71,1.14 -0.83,0.76 -1.25,1.9 -1.25,3.41 0,1.13 0.46,2.19 1.38,3.18 l 9.92,10.76 c 1.83,1.98 2.74,4.1 2.74,6.38 v 2.29 c 0,2.44 -0.92,4.56 -2.74,6.35 -1.83,1.79 -4.03,2.68 -6.61,2.68 h -4.7 c -3.1,0 -5.44,-0.76 -7,-2.27 -1.57,-1.51 -2.35,-3.76 -2.35,-6.76 h 4.7 c -0.03,0.31 -0.04,0.56 -0.04,0.74 0,1.23 0.49,2.16 1.47,2.8 0.98,0.64 2.06,0.95 3.23,0.95 1.67,0 2.87,-0.39 3.6,-1.17 0.73,-0.78 1.1,-1.91 1.1,-3.39 0,-1.14 -0.46,-2.2 -1.38,-3.18 l -9.92,-10.72 c -1.83,-1.96 -2.74,-4.09 -2.74,-6.38 v -2.29 c 0,-2.46 0.91,-4.58 2.74,-6.36 1.83,-1.78 4.03,-2.67 6.61,-2.67 h 4.7 c 5.83,0.01 8.95,3.02 9.33,9.04 z"
   id="path487" />
	</g>
</g>
</svg>
